%TF.GenerationSoftware,KiCad,Pcbnew,8.0.5*%
%TF.CreationDate,2024-09-30T11:30:18+01:00*%
%TF.ProjectId,Soft_Power_Switch_USB-C,536f6674-5f50-46f7-9765-725f53776974,v01*%
%TF.SameCoordinates,Original*%
%TF.FileFunction,Paste,Top*%
%TF.FilePolarity,Positive*%
%FSLAX46Y46*%
G04 Gerber Fmt 4.6, Leading zero omitted, Abs format (unit mm)*
G04 Created by KiCad (PCBNEW 8.0.5) date 2024-09-30 11:30:18*
%MOMM*%
%LPD*%
G01*
G04 APERTURE LIST*
G04 Aperture macros list*
%AMRoundRect*
0 Rectangle with rounded corners*
0 $1 Rounding radius*
0 $2 $3 $4 $5 $6 $7 $8 $9 X,Y pos of 4 corners*
0 Add a 4 corners polygon primitive as box body*
4,1,4,$2,$3,$4,$5,$6,$7,$8,$9,$2,$3,0*
0 Add four circle primitives for the rounded corners*
1,1,$1+$1,$2,$3*
1,1,$1+$1,$4,$5*
1,1,$1+$1,$6,$7*
1,1,$1+$1,$8,$9*
0 Add four rect primitives between the rounded corners*
20,1,$1+$1,$2,$3,$4,$5,0*
20,1,$1+$1,$4,$5,$6,$7,0*
20,1,$1+$1,$6,$7,$8,$9,0*
20,1,$1+$1,$8,$9,$2,$3,0*%
G04 Aperture macros list end*
%ADD10R,1.524000X0.762000*%
%ADD11RoundRect,0.218750X0.218750X0.256250X-0.218750X0.256250X-0.218750X-0.256250X0.218750X-0.256250X0*%
%ADD12RoundRect,0.218750X-0.218750X-0.256250X0.218750X-0.256250X0.218750X0.256250X-0.218750X0.256250X0*%
%ADD13RoundRect,0.250000X-0.925000X0.412500X-0.925000X-0.412500X0.925000X-0.412500X0.925000X0.412500X0*%
%ADD14R,0.800000X0.550000*%
%ADD15R,0.700000X0.300000*%
%ADD16RoundRect,0.200000X-0.275000X0.200000X-0.275000X-0.200000X0.275000X-0.200000X0.275000X0.200000X0*%
%ADD17RoundRect,0.200000X-0.200000X-0.275000X0.200000X-0.275000X0.200000X0.275000X-0.200000X0.275000X0*%
%ADD18RoundRect,0.200000X0.275000X-0.200000X0.275000X0.200000X-0.275000X0.200000X-0.275000X-0.200000X0*%
%ADD19R,0.900000X0.800000*%
%ADD20R,1.000000X0.300000*%
%ADD21R,1.000000X0.600000*%
%ADD22O,1.600000X1.000000*%
%ADD23O,2.100000X1.000000*%
%ADD24RoundRect,0.200000X0.200000X0.275000X-0.200000X0.275000X-0.200000X-0.275000X0.200000X-0.275000X0*%
%ADD25RoundRect,0.225000X0.250000X-0.225000X0.250000X0.225000X-0.250000X0.225000X-0.250000X-0.225000X0*%
%ADD26R,0.660000X0.300000*%
%ADD27R,0.630000X0.830000*%
%ADD28R,2.800000X1.000000*%
G04 APERTURE END LIST*
D10*
%TO.C,SW1*%
X9906000Y24257000D03*
X15494000Y24257000D03*
X9906000Y20447000D03*
X15494000Y20447000D03*
%TD*%
D11*
%TO.C,D3*%
X24155500Y6604000D03*
X22580500Y6604000D03*
%TD*%
D12*
%TO.C,D2*%
X1244500Y6604000D03*
X2819500Y6604000D03*
%TD*%
D13*
%TO.C,C2*%
X12700000Y6617500D03*
X12700000Y3542500D03*
%TD*%
D14*
%TO.C,Q3*%
X11500000Y11618000D03*
X11500000Y10668000D03*
X11500000Y9718000D03*
X13900000Y9718000D03*
X13900000Y10668000D03*
X13900000Y11618000D03*
%TD*%
D15*
%TO.C,U2*%
X6566000Y19827000D03*
X6566000Y19177000D03*
X6566000Y18527000D03*
X8166000Y18527000D03*
X8166000Y19827000D03*
%TD*%
D16*
%TO.C,R8*%
X18796000Y4889000D03*
X18796000Y3239000D03*
%TD*%
D17*
%TO.C,R4*%
X19495000Y6604000D03*
X21145000Y6604000D03*
%TD*%
D18*
%TO.C,R1*%
X20193000Y18416000D03*
X20193000Y20066000D03*
%TD*%
D16*
%TO.C,R11*%
X9144000Y12001000D03*
X9144000Y10351000D03*
%TD*%
D19*
%TO.C,Q1*%
X8144000Y5014000D03*
X8144000Y3114000D03*
X10244000Y4064000D03*
%TD*%
D16*
%TO.C,R6*%
X6604000Y4889000D03*
X6604000Y3239000D03*
%TD*%
D20*
%TO.C,J2*%
X19136000Y11450000D03*
X19136000Y12450000D03*
X19136000Y12950000D03*
X19136000Y13950000D03*
X19136000Y14450000D03*
X19136000Y13450000D03*
X19136000Y11950000D03*
X19136000Y10950000D03*
D21*
X19136000Y9475000D03*
X19136000Y15925000D03*
D22*
X23891000Y8382000D03*
D23*
X19711000Y8382000D03*
X19711000Y17018000D03*
D22*
X23891000Y17018000D03*
D21*
X19136000Y10250000D03*
X19136000Y15150000D03*
%TD*%
D24*
%TO.C,R3*%
X5905000Y6604000D03*
X4255000Y6604000D03*
%TD*%
D25*
%TO.C,C4*%
X18034000Y22085000D03*
X18034000Y23635000D03*
%TD*%
D17*
%TO.C,R5*%
X8319000Y6477000D03*
X9969000Y6477000D03*
%TD*%
D25*
%TO.C,C3*%
X7366000Y22085000D03*
X7366000Y23635000D03*
%TD*%
D26*
%TO.C,U4*%
X11780000Y18811000D03*
X11780000Y18161000D03*
X11780000Y17511000D03*
X13620000Y17511000D03*
X13620000Y18161000D03*
X13620000Y18811000D03*
%TD*%
D27*
%TO.C,D1*%
X3690000Y18796000D03*
X1390000Y18796000D03*
%TD*%
D17*
%TO.C,R7*%
X15431000Y6477000D03*
X17081000Y6477000D03*
%TD*%
D15*
%TO.C,U3*%
X18834000Y18527000D03*
X18834000Y19177000D03*
X18834000Y19827000D03*
X17234000Y19827000D03*
X17234000Y18527000D03*
%TD*%
D17*
%TO.C,R2*%
X22035000Y18796000D03*
X23685000Y18796000D03*
%TD*%
D20*
%TO.C,J1*%
X6264000Y13950000D03*
X6264000Y12950000D03*
X6264000Y12450000D03*
X6264000Y11450000D03*
X6264000Y10950000D03*
X6264000Y11950000D03*
X6264000Y13450000D03*
X6264000Y14450000D03*
D21*
X6264000Y15925000D03*
X6264000Y9475000D03*
D22*
X1509000Y17018000D03*
D23*
X5689000Y17018000D03*
X5689000Y8382000D03*
D22*
X1509000Y8382000D03*
D21*
X6264000Y15150000D03*
X6264000Y10250000D03*
%TD*%
D18*
%TO.C,R12*%
X9144000Y13399000D03*
X9144000Y15049000D03*
%TD*%
D17*
%TO.C,R9*%
X13526000Y8255000D03*
X15176000Y8255000D03*
%TD*%
D25*
%TO.C,C1*%
X5207000Y18529000D03*
X5207000Y20079000D03*
%TD*%
D24*
%TO.C,R10*%
X11874000Y8255000D03*
X10224000Y8255000D03*
%TD*%
D28*
%TO.C,F1*%
X12700000Y13105000D03*
X12700000Y16105000D03*
%TD*%
D19*
%TO.C,Q2*%
X17256000Y3114000D03*
X17256000Y5014000D03*
X15156000Y4064000D03*
%TD*%
M02*
