%TF.GenerationSoftware,KiCad,Pcbnew,8.0.5*%
%TF.CreationDate,2024-09-30T11:30:18+01:00*%
%TF.ProjectId,Soft_Power_Switch_USB-C,536f6674-5f50-46f7-9765-725f53776974,v01*%
%TF.SameCoordinates,Original*%
%TF.FileFunction,Soldermask,Bot*%
%TF.FilePolarity,Negative*%
%FSLAX46Y46*%
G04 Gerber Fmt 4.6, Leading zero omitted, Abs format (unit mm)*
G04 Created by KiCad (PCBNEW 8.0.5) date 2024-09-30 11:30:18*
%MOMM*%
%LPD*%
G01*
G04 APERTURE LIST*
G04 Aperture macros list*
%AMRoundRect*
0 Rectangle with rounded corners*
0 $1 Rounding radius*
0 $2 $3 $4 $5 $6 $7 $8 $9 X,Y pos of 4 corners*
0 Add a 4 corners polygon primitive as box body*
4,1,4,$2,$3,$4,$5,$6,$7,$8,$9,$2,$3,0*
0 Add four circle primitives for the rounded corners*
1,1,$1+$1,$2,$3*
1,1,$1+$1,$4,$5*
1,1,$1+$1,$6,$7*
1,1,$1+$1,$8,$9*
0 Add four rect primitives between the rounded corners*
20,1,$1+$1,$2,$3,$4,$5,0*
20,1,$1+$1,$4,$5,$6,$7,0*
20,1,$1+$1,$6,$7,$8,$9,0*
20,1,$1+$1,$8,$9,$2,$3,0*%
G04 Aperture macros list end*
%ADD10C,0.000000*%
%ADD11C,2.082800*%
%ADD12C,3.100000*%
%ADD13C,0.650000*%
%ADD14O,1.600000X1.000000*%
%ADD15O,2.100000X1.000000*%
%ADD16C,1.000000*%
%ADD17RoundRect,0.101600X-0.330200X-0.635000X0.330200X-0.635000X0.330200X0.635000X-0.330200X0.635000X0*%
%ADD18RoundRect,0.101600X0.330200X0.635000X-0.330200X0.635000X-0.330200X-0.635000X0.330200X-0.635000X0*%
G04 APERTURE END LIST*
D10*
%TO.C,JP2*%
G36*
X22098000Y6363500D02*
G01*
X21590000Y6363500D01*
X21590000Y6844500D01*
X22098000Y6844500D01*
X22098000Y6363500D01*
G37*
%TO.C,JP1*%
G36*
X3810000Y6363500D02*
G01*
X3302000Y6363500D01*
X3302000Y6844500D01*
X3810000Y6844500D01*
X3810000Y6363500D01*
G37*
%TD*%
D11*
%TO.C,J3*%
X19050000Y1270000D03*
X16510000Y1270000D03*
X13970000Y1270000D03*
X11430000Y1270000D03*
X8890000Y1270000D03*
X6350000Y1270000D03*
%TD*%
D12*
%TO.C,ST4*%
X22860000Y2540000D03*
%TD*%
D13*
%TO.C,J2*%
X20241000Y9810000D03*
X20241000Y15590000D03*
D14*
X23891000Y8382000D03*
D15*
X19711000Y8382000D03*
X19711000Y17018000D03*
D14*
X23891000Y17018000D03*
%TD*%
D12*
%TO.C,ST3*%
X22860000Y22860000D03*
%TD*%
D13*
%TO.C,J1*%
X5159000Y15590000D03*
X5159000Y9810000D03*
D14*
X1509000Y17018000D03*
D15*
X5689000Y17018000D03*
X5689000Y8382000D03*
D14*
X1509000Y8382000D03*
%TD*%
D12*
%TO.C,ST1*%
X2540000Y22860000D03*
%TD*%
%TO.C,ST2*%
X2540000Y2540000D03*
%TD*%
D16*
%TO.C,FID3*%
X20320000Y24638000D03*
%TD*%
%TO.C,FID2*%
X762000Y5080000D03*
%TD*%
D17*
%TO.C,JP2*%
X21323300Y6604000D03*
X22364700Y6604000D03*
%TD*%
D18*
%TO.C,JP1*%
X4076700Y6604000D03*
X3035300Y6604000D03*
%TD*%
M02*
