M48
; DRILL file {KiCad 8.0.5} date 2024-09-30T11:30:18+0100
; FORMAT={-:-/ absolute / metric / decimal}
; #@! TF.CreationDate,2024-09-30T11:30:18+01:00
; #@! TF.GenerationSoftware,Kicad,Pcbnew,8.0.5
; #@! TF.FileFunction,MixedPlating,1,2
FMAT,2
METRIC
; #@! TA.AperFunction,Plated,PTH,ViaDrill
T1C0.300
; #@! TA.AperFunction,Plated,PTH,ComponentDrill
T2C0.600
; #@! TA.AperFunction,Plated,PTH,ComponentDrill
T3C1.016
; #@! TA.AperFunction,NonPlated,NPTH,ComponentDrill
T4C0.650
; #@! TA.AperFunction,NonPlated,NPTH,ComponentDrill
T5C3.100
%
G90
G05
T1
X2.286Y18.542
X2.54Y12.7
X4.191Y12.7
X4.318Y16.256
X4.318Y9.144
X5.08Y2.54
X5.461Y21.082
X6.858Y6.223
X7.239Y12.7
X7.239Y7.493
X7.24Y13.461
X7.334Y14.224
X7.334Y11.316
X7.366Y24.638
X7.366Y19.177
X7.366Y10.16
X8.046Y10.16
X8.166Y17.615
X8.89Y9.144
X9.766Y18.415
X10.287Y16.99
X10.287Y12.192
X10.414Y14.986
X10.414Y13.97
X10.541Y11.43
X10.604Y9.715
X10.668Y18.161
X11.43Y20.447
X12.573Y9.652
X12.7Y22.987
X12.7Y4.699
X12.7Y2.286
X14.732Y19.063
X14.732Y17.526
X14.732Y14.732
X14.859Y11.557
X15.138Y10.465
X16.129Y8.255
X16.51Y7.493
X16.637Y10.16
X18.034Y24.638
X18.034Y16.256
X18.034Y12.954
X18.034Y12.065
X18.034Y10.16
X18.542Y7.366
X18.669Y20.688
X19.304Y21.209
X20.32Y5.347
X20.32Y4.064
X21.082Y16.256
X21.082Y9.144
X22.86Y17.907
X22.86Y12.7
X24.257Y5.08
T3
X6.35Y1.27
X8.89Y1.27
X11.43Y1.27
X13.97Y1.27
X16.51Y1.27
X19.05Y1.27
T4
X5.159Y15.59
X5.159Y9.81
X20.241Y15.59
X20.241Y9.81
T5
X2.54Y22.86
X2.54Y2.54
X22.86Y22.86
X22.86Y2.54
T2
G00X1.809Y17.018
M15
G01X1.209Y17.018
M16
G05
G00X1.809Y8.382
M15
G01X1.209Y8.382
M16
G05
G00X6.239Y17.018
M15
G01X5.139Y17.018
M16
G05
G00X6.239Y8.382
M15
G01X5.139Y8.382
M16
G05
G00X19.161Y17.018
M15
G01X20.261Y17.018
M16
G05
G00X19.161Y8.382
M15
G01X20.261Y8.382
M16
G05
G00X23.591Y17.018
M15
G01X24.191Y17.018
M16
G05
G00X23.591Y8.382
M15
G01X24.191Y8.382
M16
G05
M30
