%TF.GenerationSoftware,KiCad,Pcbnew,8.0.5*%
%TF.CreationDate,2024-09-30T11:30:18+01:00*%
%TF.ProjectId,Soft_Power_Switch_USB-C,536f6674-5f50-46f7-9765-725f53776974,v01*%
%TF.SameCoordinates,Original*%
%TF.FileFunction,Copper,L2,Bot*%
%TF.FilePolarity,Positive*%
%FSLAX46Y46*%
G04 Gerber Fmt 4.6, Leading zero omitted, Abs format (unit mm)*
G04 Created by KiCad (PCBNEW 8.0.5) date 2024-09-30 11:30:18*
%MOMM*%
%LPD*%
G01*
G04 APERTURE LIST*
%ADD10C,0.254000*%
%TA.AperFunction,EtchedComponent*%
%ADD11C,0.000000*%
%TD*%
%TA.AperFunction,ComponentPad*%
%ADD12C,1.879600*%
%TD*%
%TA.AperFunction,ComponentPad*%
%ADD13O,1.600000X1.000000*%
%TD*%
%TA.AperFunction,ComponentPad*%
%ADD14O,2.100000X1.000000*%
%TD*%
%TA.AperFunction,SMDPad,CuDef*%
%ADD15C,0.500000*%
%TD*%
%TA.AperFunction,SMDPad,CuDef*%
%ADD16R,0.660400X1.270000*%
%TD*%
%TA.AperFunction,ViaPad*%
%ADD17C,0.560000*%
%TD*%
%TA.AperFunction,Conductor*%
%ADD18C,0.558800*%
%TD*%
%TA.AperFunction,Conductor*%
%ADD19C,0.177800*%
%TD*%
%TA.AperFunction,Conductor*%
%ADD20C,0.304800*%
%TD*%
G04 APERTURE END LIST*
D10*
G36*
X11899053Y24663433D02*
G01*
X11918292Y24644194D01*
X11951220Y24578338D01*
X11992428Y24413506D01*
X11992428Y24202869D01*
X11951220Y24038037D01*
X11918292Y23972181D01*
X11899054Y23952944D01*
X11847543Y23927188D01*
X11810741Y23927188D01*
X11759229Y23952944D01*
X11739992Y23972181D01*
X11707064Y24038037D01*
X11665856Y24202869D01*
X11665856Y24413506D01*
X11707064Y24578338D01*
X11739992Y24644194D01*
X11759231Y24663433D01*
X11810741Y24689188D01*
X11847543Y24689188D01*
X11899053Y24663433D01*
G37*
G36*
X14162159Y23546188D02*
G01*
X11284856Y23546188D01*
X11284856Y24429140D01*
X11411856Y24429140D01*
X11411856Y24187235D01*
X11412281Y24182914D01*
X11412006Y24181061D01*
X11413377Y24171789D01*
X11414296Y24162459D01*
X11415012Y24160729D01*
X11415648Y24156433D01*
X11464029Y23962909D01*
X11464681Y23961082D01*
X11464747Y23960166D01*
X11468689Y23949866D01*
X11472405Y23939464D01*
X11472952Y23938726D01*
X11473645Y23936915D01*
X11522026Y23840153D01*
X11528739Y23829489D01*
X11530022Y23826391D01*
X11532883Y23822905D01*
X11535288Y23819084D01*
X11537821Y23816887D01*
X11545815Y23807146D01*
X11594196Y23758765D01*
X11603939Y23750769D01*
X11606135Y23748238D01*
X11609951Y23745836D01*
X11613441Y23742972D01*
X11616538Y23741689D01*
X11627204Y23734975D01*
X11723966Y23686595D01*
X11747218Y23677698D01*
X11751768Y23677375D01*
X11755985Y23675628D01*
X11780761Y23673188D01*
X11877523Y23673188D01*
X11902299Y23675628D01*
X11906515Y23677375D01*
X11911067Y23677698D01*
X11934318Y23686595D01*
X12031080Y23734975D01*
X12041746Y23741690D01*
X12044843Y23742972D01*
X12048329Y23745834D01*
X12052150Y23748238D01*
X12054347Y23750772D01*
X12064088Y23758765D01*
X12112469Y23807146D01*
X12120462Y23816887D01*
X12122996Y23819084D01*
X12125400Y23822905D01*
X12127090Y23824964D01*
X12381915Y23824964D01*
X12381915Y23775412D01*
X12400878Y23729631D01*
X12435918Y23694591D01*
X12481699Y23675628D01*
X12506475Y23673188D01*
X13087047Y23673188D01*
X13111823Y23675628D01*
X13157604Y23694591D01*
X13192644Y23729631D01*
X13211607Y23775412D01*
X13211607Y23824964D01*
X13192644Y23870745D01*
X13157604Y23905785D01*
X13111823Y23924748D01*
X13087047Y23927188D01*
X12923761Y23927188D01*
X12923761Y24466815D01*
X12933489Y24460691D01*
X13030251Y24412310D01*
X13053502Y24403412D01*
X13102931Y24399899D01*
X13149942Y24415570D01*
X13187377Y24448037D01*
X13192838Y24458959D01*
X13300077Y24458959D01*
X13306112Y24434806D01*
X13548017Y23757474D01*
X13558648Y23734962D01*
X13562925Y23730238D01*
X13565655Y23724474D01*
X13579437Y23711998D01*
X13591904Y23698226D01*
X13597663Y23695498D01*
X13602391Y23691218D01*
X13619896Y23684967D01*
X13636688Y23677012D01*
X13643053Y23676696D01*
X13649056Y23674552D01*
X13667617Y23675475D01*
X13686179Y23674552D01*
X13692181Y23676696D01*
X13698548Y23677012D01*
X13715343Y23684968D01*
X13732845Y23691218D01*
X13737570Y23695497D01*
X13743332Y23698225D01*
X13755803Y23712003D01*
X13769581Y23724474D01*
X13772309Y23730236D01*
X13776588Y23734961D01*
X13787219Y23757473D01*
X14029124Y24434806D01*
X14035159Y24458959D01*
X14032699Y24508451D01*
X14011486Y24553235D01*
X13974750Y24586491D01*
X13928084Y24603157D01*
X13878593Y24600697D01*
X13833809Y24579483D01*
X13800553Y24542747D01*
X13789922Y24520235D01*
X13667618Y24177786D01*
X13545314Y24520236D01*
X13534683Y24542748D01*
X13501427Y24579484D01*
X13456643Y24600697D01*
X13407151Y24603157D01*
X13360486Y24586491D01*
X13323750Y24553235D01*
X13302537Y24508451D01*
X13300077Y24458959D01*
X13192838Y24458959D01*
X13209537Y24492357D01*
X13213050Y24541786D01*
X13197379Y24588797D01*
X13164912Y24626232D01*
X13143843Y24639494D01*
X13065515Y24678658D01*
X12992215Y24751959D01*
X12902431Y24886635D01*
X12902375Y24886703D01*
X12902358Y24886745D01*
X12902263Y24886840D01*
X12886658Y24905896D01*
X12876209Y24912894D01*
X12867318Y24921785D01*
X12855823Y24926547D01*
X12845485Y24933470D01*
X12833154Y24935937D01*
X12821537Y24940748D01*
X12809094Y24940748D01*
X12796893Y24943188D01*
X12784560Y24940748D01*
X12771985Y24940748D01*
X12760487Y24935986D01*
X12748282Y24933571D01*
X12737820Y24926597D01*
X12726204Y24921785D01*
X12717406Y24912987D01*
X12707053Y24906085D01*
X12700055Y24895637D01*
X12691164Y24886745D01*
X12686402Y24875251D01*
X12679479Y24864912D01*
X12677012Y24852582D01*
X12672201Y24840964D01*
X12669786Y24816449D01*
X12669761Y24816320D01*
X12669769Y24816277D01*
X12669761Y24816188D01*
X12669761Y23927188D01*
X12506475Y23927188D01*
X12481699Y23924748D01*
X12435918Y23905785D01*
X12400878Y23870745D01*
X12381915Y23824964D01*
X12127090Y23824964D01*
X12128262Y23826391D01*
X12129544Y23829489D01*
X12136258Y23840153D01*
X12184639Y23936915D01*
X12185332Y23938728D01*
X12185879Y23939465D01*
X12189591Y23949858D01*
X12193537Y23960166D01*
X12193602Y23961082D01*
X12194255Y23962909D01*
X12242636Y24156433D01*
X12243271Y24160729D01*
X12243988Y24162459D01*
X12244906Y24171789D01*
X12246278Y24181061D01*
X12246002Y24182914D01*
X12246428Y24187235D01*
X12246428Y24429140D01*
X12246002Y24433462D01*
X12246278Y24435314D01*
X12244906Y24444587D01*
X12243988Y24453916D01*
X12243271Y24455647D01*
X12242636Y24459942D01*
X12194255Y24653466D01*
X12193602Y24655294D01*
X12193537Y24656209D01*
X12189591Y24666518D01*
X12185879Y24676910D01*
X12185332Y24677648D01*
X12184639Y24679460D01*
X12136258Y24776222D01*
X12129544Y24786887D01*
X12128262Y24789984D01*
X12125400Y24793471D01*
X12122996Y24797291D01*
X12120462Y24799489D01*
X12112469Y24809229D01*
X12064088Y24857610D01*
X12054347Y24865604D01*
X12052150Y24868137D01*
X12048329Y24870542D01*
X12044843Y24873403D01*
X12041745Y24874686D01*
X12031081Y24881399D01*
X11934319Y24929780D01*
X11911068Y24938678D01*
X11906515Y24939002D01*
X11902299Y24940748D01*
X11877523Y24943188D01*
X11780761Y24943188D01*
X11755985Y24940748D01*
X11751768Y24939002D01*
X11747216Y24938678D01*
X11723965Y24929780D01*
X11627203Y24881399D01*
X11616538Y24874686D01*
X11613441Y24873403D01*
X11609954Y24870542D01*
X11606134Y24868137D01*
X11603936Y24865604D01*
X11594196Y24857610D01*
X11545815Y24809229D01*
X11537821Y24799489D01*
X11535288Y24797291D01*
X11532883Y24793471D01*
X11530022Y24789984D01*
X11528739Y24786887D01*
X11522026Y24776222D01*
X11473645Y24679460D01*
X11472952Y24677650D01*
X11472405Y24676911D01*
X11468689Y24666510D01*
X11464747Y24656209D01*
X11464681Y24655294D01*
X11464029Y24653466D01*
X11415648Y24459942D01*
X11415012Y24455647D01*
X11414296Y24453916D01*
X11413377Y24444587D01*
X11412006Y24435314D01*
X11412281Y24433462D01*
X11411856Y24429140D01*
X11284856Y24429140D01*
X11284856Y25070188D01*
X14162159Y25070188D01*
X14162159Y23546188D01*
G37*
D11*
%TA.AperFunction,EtchedComponent*%
%TO.C,JP2*%
G36*
X22094000Y6454000D02*
G01*
X21594000Y6454000D01*
X21594000Y6754000D01*
X22094000Y6754000D01*
X22094000Y6454000D01*
G37*
%TD.AperFunction*%
%TA.AperFunction,EtchedComponent*%
%TO.C,JP1*%
G36*
X3806000Y6454000D02*
G01*
X3306000Y6454000D01*
X3306000Y6754000D01*
X3806000Y6754000D01*
X3806000Y6454000D01*
G37*
%TD.AperFunction*%
%TD*%
D12*
%TO.P,J3,1,Pin_1*%
%TO.N,VOUT*%
X19050000Y1270000D03*
%TO.P,J3,2,Pin_2*%
%TO.N,OFF*%
X16510000Y1270000D03*
%TO.P,J3,3,Pin_3*%
%TO.N,PUSH*%
X13970000Y1270000D03*
%TO.P,J3,4,Pin_4*%
%TO.N,BTN*%
X11430000Y1270000D03*
%TO.P,J3,5,Pin_5*%
%TO.N,VIN*%
X8890000Y1270000D03*
%TO.P,J3,6,Pin_6*%
%TO.N,GND*%
X6350000Y1270000D03*
%TD*%
D13*
%TO.P,J2,NC1,NC*%
%TO.N,unconnected-(J2-NC-PadNC1)*%
X23891000Y8382000D03*
D14*
%TO.P,J2,NC2,NC*%
%TO.N,unconnected-(J2-NC-PadNC2)*%
X19711000Y8382000D03*
%TO.P,J2,NC3,NC*%
%TO.N,unconnected-(J2-NC-PadNC3)*%
X19711000Y17018000D03*
D13*
%TO.P,J2,S,SHIELD*%
%TO.N,GND*%
X23891000Y17018000D03*
%TD*%
%TO.P,J1,NC1,NC*%
%TO.N,unconnected-(J1-NC-PadNC1)*%
X1509000Y17018000D03*
D14*
%TO.P,J1,NC2,NC*%
%TO.N,unconnected-(J1-NC-PadNC2)*%
X5689000Y17018000D03*
%TO.P,J1,NC3,NC*%
%TO.N,unconnected-(J1-NC-PadNC3)*%
X5689000Y8382000D03*
D13*
%TO.P,J1,S,SHIELD*%
%TO.N,GND*%
X1509000Y8382000D03*
%TD*%
D15*
%TO.P,FID3,*%
%TO.N,*%
X20320000Y24638000D03*
%TD*%
%TO.P,FID2,*%
%TO.N,*%
X762000Y5080000D03*
%TD*%
D16*
%TO.P,JP2,1,A*%
%TO.N,Net-(JP2-A)*%
X21323300Y6604000D03*
%TO.P,JP2,2,B*%
%TO.N,VOUT*%
X22364700Y6604000D03*
%TD*%
%TO.P,JP1,1,A*%
%TO.N,Net-(JP1-A)*%
X4076700Y6604000D03*
%TO.P,JP1,2,B*%
%TO.N,VIN*%
X3035300Y6604000D03*
%TD*%
D17*
%TO.N,GND*%
X15138400Y10464800D03*
X12700000Y22987000D03*
X5461000Y21082000D03*
X18669000Y20687700D03*
X20320000Y4064000D03*
X22860000Y12700000D03*
X10414000Y14986000D03*
X10287000Y16989700D03*
X18034000Y24638000D03*
X4191000Y12700000D03*
X24257000Y5080000D03*
X12700000Y4699000D03*
X16510000Y7493000D03*
X21082000Y9144000D03*
X2540000Y12700000D03*
X4318000Y9144000D03*
X10668000Y18161000D03*
X18034000Y16256000D03*
X5080000Y2540000D03*
X7366000Y24638000D03*
X4318000Y16256000D03*
X21082000Y16256000D03*
X8890000Y9144000D03*
X14732000Y14732000D03*
%TO.N,BTN*%
X11430000Y20447000D03*
X19304000Y21209000D03*
X7366000Y19177000D03*
%TO.N,Net-(C2-Pad1)*%
X22860000Y17907000D03*
X2286000Y18542000D03*
X7239000Y7493000D03*
%TO.N,VOUT*%
X18034000Y10160000D03*
X16637000Y10160000D03*
%TO.N,Net-(JP1-A)*%
X6858000Y6223000D03*
%TO.N,Net-(JP2-A)*%
X18542000Y7366000D03*
%TO.N,Net-(U4-CLK)*%
X14732000Y19063300D03*
X9765700Y18415000D03*
X20320000Y5347300D03*
X8166000Y17615000D03*
%TO.N,OFF*%
X12700000Y2286000D03*
%TO.N,VIN*%
X7366000Y10160000D03*
X8046003Y10160000D03*
%TO.N,Net-(Q3A-G)*%
X10541000Y11430000D03*
X12573000Y9652000D03*
%TO.N,Net-(Q3A-D)*%
X14859000Y11557000D03*
X10604500Y9715500D03*
%TO.N,EN*%
X14732000Y17526000D03*
X16129000Y8255000D03*
%TO.N,Net-(J1-CC1)*%
X7334203Y14224000D03*
X10414000Y13970000D03*
%TO.N,Net-(J1-D+-PadA6)*%
X18034000Y12065000D03*
X7239000Y12700000D03*
%TO.N,Net-(J1-D--PadA7)*%
X18034000Y12954000D03*
X7239543Y13460519D03*
%TO.N,Net-(J1-CC2)*%
X7334203Y11316300D03*
X10287000Y12192000D03*
%TD*%
D18*
%TO.N,GND*%
X6350000Y1270000D02*
X5080000Y2540000D01*
D19*
%TO.N,BTN*%
X4368800Y11125200D02*
X6400800Y11125200D01*
X6400800Y11125200D02*
X6731000Y10795000D01*
X9525000Y10160000D02*
X9525000Y8509000D01*
X5207000Y19177000D02*
X3505200Y17475200D01*
X3505200Y11988800D02*
X4368800Y11125200D01*
X9525000Y8509000D02*
X11430000Y6604000D01*
X8890000Y10795000D02*
X9525000Y10160000D01*
X19304000Y21209000D02*
X12192000Y21209000D01*
X3505200Y17475200D02*
X3505200Y11988800D01*
X7366000Y19177000D02*
X5207000Y19177000D01*
X7366000Y19177000D02*
X10160000Y19177000D01*
X6731000Y10795000D02*
X8890000Y10795000D01*
X11430000Y6604000D02*
X11430000Y1270000D01*
X10160000Y19177000D02*
X11430000Y20447000D01*
X12192000Y21209000D02*
X11430000Y20447000D01*
%TO.N,Net-(C2-Pad1)*%
X11951300Y21730300D02*
X19925700Y21730300D01*
X5842000Y10795000D02*
X4191000Y10795000D01*
X19925700Y21730300D02*
X22860000Y18796000D01*
X2286000Y18542000D02*
X3937000Y18542000D01*
X5207000Y19812000D02*
X10033000Y19812000D01*
X3937000Y18542000D02*
X5207000Y19812000D01*
X3175000Y11811000D02*
X3175000Y18542000D01*
X7239000Y9398000D02*
X5842000Y10795000D01*
X4191000Y10795000D02*
X3175000Y11811000D01*
X22860000Y18796000D02*
X22860000Y17907000D01*
X10033000Y19812000D02*
X11951300Y21730300D01*
X7239000Y7493000D02*
X7239000Y9398000D01*
D18*
%TO.N,VOUT*%
X18034000Y10160000D02*
X17526000Y10160000D01*
D19*
X22098000Y5461000D02*
X21463000Y5461000D01*
X20828000Y4826000D02*
X17526000Y4826000D01*
D18*
X17272000Y3048000D02*
X17272000Y5080000D01*
X17272000Y5080000D02*
X17272000Y10160000D01*
D19*
X17526000Y4826000D02*
X17272000Y5080000D01*
D18*
X19050000Y1270000D02*
X17272000Y3048000D01*
D19*
X22364700Y5727700D02*
X22098000Y5461000D01*
D18*
X17526000Y10160000D02*
X16637000Y10160000D01*
D19*
X21463000Y5461000D02*
X20828000Y4826000D01*
X22364700Y6604000D02*
X22364700Y5727700D01*
%TO.N,Net-(JP1-A)*%
X6477000Y6604000D02*
X4076700Y6604000D01*
X6858000Y6223000D02*
X6477000Y6604000D01*
%TO.N,Net-(JP2-A)*%
X18542000Y7366000D02*
X19304000Y6604000D01*
X19304000Y6604000D02*
X21323300Y6604000D01*
%TO.N,Net-(U4-CLK)*%
X8166000Y17615000D02*
X8966000Y18415000D01*
X15253300Y17285300D02*
X15253300Y18542000D01*
X16968400Y15570200D02*
X15253300Y17285300D01*
X17792700Y8902700D02*
X19380200Y10490200D01*
X17792700Y6616070D02*
X17792700Y8902700D01*
X19061470Y5347300D02*
X17792700Y6616070D01*
X19380200Y14909800D02*
X18719800Y15570200D01*
X8966000Y18415000D02*
X9765700Y18415000D01*
X19380200Y10490200D02*
X19380200Y14909800D01*
X18719800Y15570200D02*
X16968400Y15570200D01*
X20320000Y5347300D02*
X19061470Y5347300D01*
X15253300Y18542000D02*
X14732000Y19063300D01*
%TO.N,OFF*%
X15240000Y2540000D02*
X16510000Y1270000D01*
X12954000Y2540000D02*
X15240000Y2540000D01*
X12700000Y2286000D02*
X12954000Y2540000D01*
D18*
%TO.N,VIN*%
X8001000Y5461000D02*
X8001000Y4826000D01*
X8046003Y10160000D02*
X7366000Y10160000D01*
X8890000Y3937000D02*
X8890000Y1270000D01*
X8001000Y4826000D02*
X8890000Y3937000D01*
X8001000Y10114997D02*
X8001000Y5461000D01*
D19*
X3035300Y5727700D02*
X3302000Y5461000D01*
X3035300Y6604000D02*
X3035300Y5727700D01*
D18*
X8046003Y10160000D02*
X8001000Y10114997D01*
D19*
X3302000Y5461000D02*
X8001000Y5461000D01*
%TO.N,Net-(Q3A-G)*%
X10033000Y9271000D02*
X10033000Y10922000D01*
X12573000Y9652000D02*
X11938000Y9017000D01*
X10287000Y9017000D02*
X10033000Y9271000D01*
X10033000Y10922000D02*
X10541000Y11430000D01*
X11938000Y9017000D02*
X10287000Y9017000D01*
%TO.N,Net-(Q3A-D)*%
X12446000Y11557000D02*
X10604500Y9715500D01*
X14859000Y11557000D02*
X12446000Y11557000D01*
%TO.N,EN*%
X19050000Y14732000D02*
X18542000Y15240000D01*
X16129000Y8255000D02*
X16129000Y9017000D01*
X18542000Y15240000D02*
X15264770Y15240000D01*
X15264770Y15240000D02*
X14732000Y15772770D01*
X14732000Y15772770D02*
X14732000Y17526000D01*
X18288000Y10922000D02*
X19050000Y11684000D01*
X16129000Y9017000D02*
X15748000Y9398000D01*
X16256000Y10922000D02*
X18288000Y10922000D01*
X15748000Y10414000D02*
X16256000Y10922000D01*
X19050000Y11684000D02*
X19050000Y14732000D01*
X15748000Y9398000D02*
X15748000Y10414000D01*
%TO.N,Net-(J1-CC1)*%
X7334203Y14224000D02*
X7588203Y13970000D01*
X7588203Y13970000D02*
X10414000Y13970000D01*
D20*
%TO.N,Net-(J1-D+-PadA6)*%
X7239000Y12700000D02*
X7366000Y12827000D01*
X7366000Y12827000D02*
X17272000Y12827000D01*
X17272000Y12827000D02*
X18034000Y12065000D01*
%TO.N,Net-(J1-D--PadA7)*%
X17653000Y13335000D02*
X18034000Y12954000D01*
X7240481Y13460519D02*
X7366000Y13335000D01*
X7239543Y13460519D02*
X7240481Y13460519D01*
X7366000Y13335000D02*
X17653000Y13335000D01*
D19*
%TO.N,Net-(J1-CC2)*%
X8776300Y11316300D02*
X9652000Y12192000D01*
X9652000Y12192000D02*
X10287000Y12192000D01*
X7334203Y11316300D02*
X8776300Y11316300D01*
%TD*%
%TA.AperFunction,Conductor*%
%TO.N,GND*%
G36*
X19961521Y25124935D02*
G01*
X19991585Y25072864D01*
X19981144Y25013650D01*
X19971451Y25000038D01*
X19894622Y24911372D01*
X19834835Y24780457D01*
X19834833Y24780451D01*
X19814353Y24638004D01*
X19814353Y24637997D01*
X19834833Y24495550D01*
X19834834Y24495545D01*
X19834835Y24495543D01*
X19894623Y24364627D01*
X19988872Y24255857D01*
X19988874Y24255856D01*
X19988875Y24255855D01*
X20049969Y24216592D01*
X20109947Y24178047D01*
X20248039Y24137500D01*
X20248040Y24137500D01*
X20391960Y24137500D01*
X20391961Y24137500D01*
X20530053Y24178047D01*
X20651128Y24255857D01*
X20745377Y24364627D01*
X20805165Y24495543D01*
X20815670Y24568608D01*
X20825647Y24637997D01*
X20825647Y24638004D01*
X20805166Y24780451D01*
X20805165Y24780452D01*
X20805165Y24780457D01*
X20745377Y24911373D01*
X20668549Y25000038D01*
X20647091Y25056206D01*
X20666757Y25113026D01*
X20718346Y25143912D01*
X20734980Y25145500D01*
X25057600Y25145500D01*
X25114101Y25124935D01*
X25144165Y25072864D01*
X25145500Y25057600D01*
X25145500Y342400D01*
X25124935Y285899D01*
X25072864Y255835D01*
X25057600Y254500D01*
X19822598Y254500D01*
X19766097Y275065D01*
X19736033Y327136D01*
X19746474Y386350D01*
X19763380Y407359D01*
X19787057Y428945D01*
X19879826Y513514D01*
X20004700Y678875D01*
X20097064Y864365D01*
X20153771Y1063670D01*
X20172890Y1270000D01*
X20153771Y1476330D01*
X20136352Y1537550D01*
X20123728Y1581920D01*
X20097064Y1675635D01*
X20004700Y1861125D01*
X19879826Y2026486D01*
X19777311Y2119941D01*
X19726694Y2166085D01*
X19726685Y2166091D01*
X19550517Y2275169D01*
X19550511Y2275172D01*
X19357296Y2350023D01*
X19357284Y2350027D01*
X19153609Y2388100D01*
X19153607Y2388100D01*
X18946393Y2388100D01*
X18946390Y2388100D01*
X18742711Y2350026D01*
X18742702Y2350023D01*
X18705695Y2335687D01*
X18645581Y2334454D01*
X18611789Y2355497D01*
X18309273Y2658013D01*
X21059500Y2658013D01*
X21059500Y2421988D01*
X21090307Y2187986D01*
X21090310Y2187974D01*
X21131118Y2035676D01*
X21151394Y1960007D01*
X21161306Y1936078D01*
X21241713Y1741957D01*
X21241714Y1741955D01*
X21241716Y1741951D01*
X21282636Y1671076D01*
X21359728Y1537548D01*
X21406769Y1476243D01*
X21503408Y1350301D01*
X21670301Y1183408D01*
X21670304Y1183406D01*
X21826350Y1063667D01*
X21857550Y1039727D01*
X22061951Y921716D01*
X22280007Y831394D01*
X22507986Y770307D01*
X22687541Y746669D01*
X22741987Y739500D01*
X22741989Y739500D01*
X22978013Y739500D01*
X23026784Y745922D01*
X23212014Y770307D01*
X23439993Y831394D01*
X23658049Y921716D01*
X23862450Y1039727D01*
X24049699Y1183408D01*
X24216592Y1350301D01*
X24360273Y1537550D01*
X24478284Y1741951D01*
X24568606Y1960007D01*
X24629693Y2187986D01*
X24656915Y2394766D01*
X24660500Y2421988D01*
X24660500Y2658013D01*
X24649096Y2744634D01*
X24629693Y2892014D01*
X24568606Y3119993D01*
X24478284Y3338049D01*
X24360273Y3542450D01*
X24216592Y3729699D01*
X24049699Y3896592D01*
X23918510Y3997257D01*
X23862452Y4040272D01*
X23735331Y4113665D01*
X23658049Y4158284D01*
X23658047Y4158285D01*
X23658045Y4158286D01*
X23658043Y4158287D01*
X23556059Y4200530D01*
X23439993Y4248606D01*
X23439986Y4248608D01*
X23212026Y4309690D01*
X23212014Y4309693D01*
X22978013Y4340500D01*
X22978011Y4340500D01*
X22741989Y4340500D01*
X22741987Y4340500D01*
X22507985Y4309693D01*
X22507973Y4309690D01*
X22280013Y4248608D01*
X22280009Y4248607D01*
X22280007Y4248606D01*
X22280005Y4248605D01*
X22061956Y4158287D01*
X22061954Y4158286D01*
X21857547Y4040272D01*
X21670304Y3896595D01*
X21503405Y3729696D01*
X21359728Y3542453D01*
X21241714Y3338046D01*
X21241713Y3338044D01*
X21151395Y3119995D01*
X21151392Y3119987D01*
X21090310Y2892027D01*
X21090307Y2892015D01*
X21059500Y2658013D01*
X18309273Y2658013D01*
X17755445Y3211841D01*
X17730034Y3266335D01*
X17729700Y3273996D01*
X17729700Y4470900D01*
X17750265Y4527401D01*
X17802336Y4557465D01*
X17817600Y4558800D01*
X20881148Y4558800D01*
X20881149Y4558800D01*
X20979357Y4599479D01*
X21547933Y5168055D01*
X21602427Y5193466D01*
X21610088Y5193800D01*
X22151148Y5193800D01*
X22151149Y5193800D01*
X22249357Y5234479D01*
X22591221Y5576343D01*
X22631900Y5674551D01*
X22631900Y5703099D01*
X22652465Y5759600D01*
X22704536Y5789664D01*
X22711197Y5790577D01*
X22712451Y5790701D01*
X22712460Y5790701D01*
X22712469Y5790703D01*
X22712471Y5790703D01*
X22764465Y5801044D01*
X22764466Y5801044D01*
X22764466Y5801045D01*
X22764469Y5801045D01*
X22823447Y5840453D01*
X22862855Y5899431D01*
X22873200Y5951439D01*
X22873199Y7256560D01*
X22873199Y7256561D01*
X22873199Y7256564D01*
X22873198Y7256566D01*
X22862856Y7308566D01*
X22862856Y7308567D01*
X22845114Y7335120D01*
X22823447Y7367547D01*
X22764469Y7406955D01*
X22712461Y7417300D01*
X22712459Y7417300D01*
X22016936Y7417300D01*
X22016934Y7417299D01*
X21964934Y7406957D01*
X21964933Y7406957D01*
X21924797Y7380139D01*
X21905955Y7367548D01*
X21898755Y7362737D01*
X21897960Y7363927D01*
X21851661Y7342337D01*
X21793583Y7357900D01*
X21782233Y7367422D01*
X21782047Y7367546D01*
X21782047Y7367547D01*
X21723069Y7406955D01*
X21671061Y7417300D01*
X21671059Y7417300D01*
X20975536Y7417300D01*
X20975534Y7417299D01*
X20923534Y7406957D01*
X20923533Y7406957D01*
X20864554Y7367548D01*
X20864552Y7367546D01*
X20825145Y7308569D01*
X20814800Y7256560D01*
X20814800Y6959100D01*
X20794235Y6902599D01*
X20742164Y6872535D01*
X20726900Y6871200D01*
X19451088Y6871200D01*
X19394587Y6891765D01*
X19388933Y6896945D01*
X19025423Y7260455D01*
X19000012Y7314949D01*
X19000573Y7335120D01*
X19005013Y7365999D01*
X19005013Y7366004D01*
X18986259Y7496440D01*
X18986258Y7496442D01*
X18986258Y7496446D01*
X18986256Y7496449D01*
X18986256Y7496452D01*
X18942716Y7591790D01*
X18937950Y7651728D01*
X18972827Y7700706D01*
X19031027Y7715807D01*
X19039809Y7714518D01*
X19094193Y7703700D01*
X19094196Y7703700D01*
X20327805Y7703700D01*
X20327807Y7703700D01*
X20414380Y7720921D01*
X20458849Y7729766D01*
X20458850Y7729767D01*
X20458853Y7729767D01*
X20582291Y7780896D01*
X20582292Y7780896D01*
X20582293Y7780897D01*
X20582296Y7780898D01*
X20693391Y7855130D01*
X20787870Y7949609D01*
X20862102Y8060704D01*
X20913233Y8184147D01*
X20939300Y8315193D01*
X20939300Y8448806D01*
X22912700Y8448806D01*
X22912700Y8315195D01*
X22938765Y8184151D01*
X22938768Y8184143D01*
X22989895Y8060710D01*
X22989895Y8060708D01*
X23019185Y8016873D01*
X23064130Y7949609D01*
X23158609Y7855130D01*
X23269704Y7780898D01*
X23269706Y7780897D01*
X23269708Y7780896D01*
X23393142Y7729769D01*
X23393150Y7729766D01*
X23459116Y7716645D01*
X23524193Y7703700D01*
X23524195Y7703700D01*
X24257805Y7703700D01*
X24257807Y7703700D01*
X24344380Y7720921D01*
X24388849Y7729766D01*
X24388850Y7729767D01*
X24388853Y7729767D01*
X24512291Y7780896D01*
X24512292Y7780896D01*
X24512293Y7780897D01*
X24512296Y7780898D01*
X24623391Y7855130D01*
X24717870Y7949609D01*
X24792102Y8060704D01*
X24843233Y8184147D01*
X24869300Y8315193D01*
X24869300Y8448807D01*
X24843233Y8579853D01*
X24792104Y8703292D01*
X24792104Y8703293D01*
X24761028Y8749801D01*
X24717870Y8814391D01*
X24623391Y8908870D01*
X24512296Y8983102D01*
X24512294Y8983103D01*
X24512291Y8983105D01*
X24388857Y9034232D01*
X24388849Y9034235D01*
X24290344Y9053828D01*
X24257807Y9060300D01*
X23524193Y9060300D01*
X23495249Y9054543D01*
X23393150Y9034235D01*
X23393142Y9034232D01*
X23269709Y8983105D01*
X23269707Y8983105D01*
X23158611Y8908872D01*
X23064128Y8814389D01*
X22989895Y8703293D01*
X22989895Y8703291D01*
X22938768Y8579858D01*
X22938765Y8579850D01*
X22912700Y8448806D01*
X20939300Y8448806D01*
X20939300Y8448807D01*
X20913233Y8579853D01*
X20862104Y8703292D01*
X20862104Y8703293D01*
X20831028Y8749801D01*
X20787870Y8814391D01*
X20693391Y8908870D01*
X20582296Y8983102D01*
X20582294Y8983103D01*
X20582291Y8983105D01*
X20458857Y9034232D01*
X20458849Y9034235D01*
X20327802Y9060301D01*
X20324966Y9060580D01*
X20323952Y9061067D01*
X20323572Y9061142D01*
X20323591Y9061240D01*
X20270754Y9086586D01*
X20245942Y9141355D01*
X20262139Y9199259D01*
X20311244Y9232847D01*
X20311201Y9233009D01*
X20311662Y9233133D01*
X20311768Y9233205D01*
X20312357Y9233319D01*
X20316765Y9234500D01*
X20316766Y9234500D01*
X20463135Y9273719D01*
X20594365Y9349485D01*
X20701515Y9456635D01*
X20777281Y9587865D01*
X20816500Y9734234D01*
X20816500Y9885766D01*
X20777281Y10032135D01*
X20701515Y10163365D01*
X20594365Y10270515D01*
X20559845Y10290445D01*
X20479790Y10336665D01*
X20463135Y10346281D01*
X20463134Y10346282D01*
X20463133Y10346282D01*
X20316766Y10385500D01*
X20165234Y10385500D01*
X20018866Y10346282D01*
X19887637Y10270517D01*
X19780483Y10163363D01*
X19704718Y10032134D01*
X19665500Y9885766D01*
X19665500Y9734235D01*
X19695808Y9621119D01*
X19704719Y9587865D01*
X19780485Y9456635D01*
X19887635Y9349485D01*
X20018865Y9273719D01*
X20165234Y9234500D01*
X20165235Y9234500D01*
X20170441Y9233105D01*
X20219694Y9198618D01*
X20235257Y9140539D01*
X20209846Y9086046D01*
X20155352Y9060635D01*
X20147691Y9060300D01*
X19094193Y9060300D01*
X19065249Y9054543D01*
X18963150Y9034235D01*
X18963142Y9034232D01*
X18839709Y8983105D01*
X18839707Y8983105D01*
X18728611Y8908872D01*
X18634128Y8814389D01*
X18559895Y8703293D01*
X18559895Y8703291D01*
X18508768Y8579858D01*
X18508765Y8579850D01*
X18482700Y8448806D01*
X18482700Y8315195D01*
X18508765Y8184151D01*
X18508768Y8184143D01*
X18559895Y8060710D01*
X18559895Y8060708D01*
X18581522Y8028341D01*
X18626496Y7961034D01*
X18640788Y7902631D01*
X18614194Y7848705D01*
X18559159Y7824488D01*
X18553410Y7824300D01*
X18476101Y7824300D01*
X18349657Y7787171D01*
X18349653Y7787170D01*
X18238794Y7715925D01*
X18238789Y7715920D01*
X18214230Y7687577D01*
X18161688Y7658343D01*
X18102648Y7669722D01*
X18064734Y7716390D01*
X18059900Y7745139D01*
X18059900Y8755613D01*
X18080465Y8812114D01*
X18085634Y8817757D01*
X19606721Y10338843D01*
X19647400Y10437051D01*
X19647400Y10543349D01*
X19647400Y14962949D01*
X19606721Y15061157D01*
X19606719Y15061159D01*
X19531557Y15136322D01*
X19531557Y15136321D01*
X18871157Y15796721D01*
X18871155Y15796722D01*
X18871156Y15796722D01*
X18813627Y15820551D01*
X18772949Y15837400D01*
X18772948Y15837400D01*
X17115488Y15837400D01*
X17058987Y15857965D01*
X17053333Y15863145D01*
X15831672Y17084806D01*
X18482700Y17084806D01*
X18482700Y16951195D01*
X18508765Y16820151D01*
X18508768Y16820143D01*
X18559895Y16696710D01*
X18559895Y16696708D01*
X18559898Y16696704D01*
X18634130Y16585609D01*
X18728609Y16491130D01*
X18839704Y16416898D01*
X18839706Y16416897D01*
X18839708Y16416896D01*
X18963142Y16365769D01*
X18963150Y16365766D01*
X19029116Y16352645D01*
X19094193Y16339700D01*
X19094195Y16339700D01*
X20147691Y16339700D01*
X20204192Y16319135D01*
X20234256Y16267064D01*
X20223815Y16207850D01*
X20177755Y16169201D01*
X20170441Y16166895D01*
X20165235Y16165500D01*
X20165234Y16165500D01*
X20138526Y16158344D01*
X20018866Y16126282D01*
X19887637Y16050517D01*
X19780483Y15943363D01*
X19704718Y15812134D01*
X19679930Y15719621D01*
X19665500Y15665766D01*
X19665500Y15514234D01*
X19704719Y15367865D01*
X19780485Y15236635D01*
X19887635Y15129485D01*
X20018865Y15053719D01*
X20165234Y15014500D01*
X20316765Y15014500D01*
X20316766Y15014500D01*
X20463135Y15053719D01*
X20594365Y15129485D01*
X20701515Y15236635D01*
X20777281Y15367865D01*
X20816500Y15514234D01*
X20816500Y15665766D01*
X20777281Y15812135D01*
X20701515Y15943365D01*
X20594365Y16050515D01*
X20463135Y16126281D01*
X20463134Y16126282D01*
X20463133Y16126282D01*
X20311201Y16166991D01*
X20312008Y16170004D01*
X20268628Y16192726D01*
X20245760Y16248335D01*
X20263987Y16305633D01*
X20314780Y16337810D01*
X20324978Y16339422D01*
X20327797Y16339700D01*
X20327807Y16339700D01*
X20436615Y16361344D01*
X20458849Y16365766D01*
X20458850Y16365767D01*
X20458853Y16365767D01*
X20582291Y16416896D01*
X20582292Y16416896D01*
X20582293Y16416897D01*
X20582296Y16416898D01*
X20693391Y16491130D01*
X20787870Y16585609D01*
X20862102Y16696704D01*
X20913233Y16820147D01*
X20939300Y16951193D01*
X20939300Y17084807D01*
X20925748Y17152937D01*
X20913234Y17215850D01*
X20913231Y17215858D01*
X20862104Y17339291D01*
X20862104Y17339293D01*
X20824511Y17395554D01*
X20787870Y17450391D01*
X20693391Y17544870D01*
X20582296Y17619102D01*
X20582294Y17619103D01*
X20582291Y17619105D01*
X20458857Y17670232D01*
X20458849Y17670235D01*
X20360344Y17689828D01*
X20327807Y17696300D01*
X19094193Y17696300D01*
X19065249Y17690543D01*
X18963150Y17670235D01*
X18963142Y17670232D01*
X18839709Y17619105D01*
X18839707Y17619105D01*
X18728611Y17544872D01*
X18634128Y17450389D01*
X18559895Y17339293D01*
X18559895Y17339291D01*
X18508768Y17215858D01*
X18508765Y17215850D01*
X18482700Y17084806D01*
X15831672Y17084806D01*
X15546245Y17370233D01*
X15520834Y17424727D01*
X15520500Y17432388D01*
X15520500Y18595148D01*
X15520500Y18595149D01*
X15479821Y18693357D01*
X15454477Y18718701D01*
X15404657Y18768522D01*
X15404657Y18768521D01*
X15215423Y18957755D01*
X15190012Y19012249D01*
X15190573Y19032420D01*
X15195013Y19063299D01*
X15195013Y19063304D01*
X15176259Y19193740D01*
X15176258Y19193741D01*
X15176258Y19193746D01*
X15121511Y19313624D01*
X15121510Y19313625D01*
X15121510Y19313626D01*
X15078360Y19363423D01*
X15035209Y19413222D01*
X15035206Y19413224D01*
X15035205Y19413225D01*
X14924346Y19484470D01*
X14924343Y19484471D01*
X14899053Y19491897D01*
X14797898Y19521600D01*
X14797894Y19521600D01*
X14666106Y19521600D01*
X14666101Y19521600D01*
X14539657Y19484471D01*
X14539653Y19484470D01*
X14428794Y19413225D01*
X14428789Y19413220D01*
X14342489Y19313626D01*
X14287742Y19193746D01*
X14287740Y19193740D01*
X14268987Y19063304D01*
X14268987Y19063297D01*
X14287740Y18932861D01*
X14287742Y18932855D01*
X14342489Y18812975D01*
X14381009Y18768521D01*
X14428791Y18713378D01*
X14428793Y18713377D01*
X14428794Y18713376D01*
X14539653Y18642131D01*
X14539654Y18642131D01*
X14539657Y18642129D01*
X14625782Y18616841D01*
X14666101Y18605001D01*
X14666104Y18605001D01*
X14666106Y18605000D01*
X14666107Y18605000D01*
X14776012Y18605000D01*
X14832513Y18584435D01*
X14838167Y18579255D01*
X14960355Y18457067D01*
X14985766Y18402573D01*
X14986100Y18394912D01*
X14986100Y18046459D01*
X14965535Y17989958D01*
X14913464Y17959894D01*
X14873436Y17962119D01*
X14797894Y17984300D01*
X14666106Y17984300D01*
X14666101Y17984300D01*
X14539657Y17947171D01*
X14539653Y17947170D01*
X14428794Y17875925D01*
X14428789Y17875920D01*
X14342489Y17776326D01*
X14287742Y17656446D01*
X14287740Y17656440D01*
X14268987Y17526004D01*
X14268987Y17525997D01*
X14287740Y17395561D01*
X14287741Y17395556D01*
X14287742Y17395554D01*
X14342489Y17275676D01*
X14394455Y17215704D01*
X14428790Y17176079D01*
X14433542Y17171962D01*
X14431486Y17169590D01*
X14460824Y17131078D01*
X14464800Y17104940D01*
X14464800Y15825919D01*
X14464800Y15719621D01*
X14505479Y15621413D01*
X15113413Y15013479D01*
X15211621Y14972800D01*
X15317919Y14972800D01*
X18394912Y14972800D01*
X18451413Y14952235D01*
X18457067Y14947055D01*
X18757055Y14647067D01*
X18782466Y14592573D01*
X18782800Y14584912D01*
X18782800Y11831088D01*
X18762235Y11774587D01*
X18757055Y11768933D01*
X18203067Y11214945D01*
X18148573Y11189534D01*
X18140912Y11189200D01*
X16309149Y11189200D01*
X16202851Y11189200D01*
X16179858Y11179676D01*
X16104644Y11148522D01*
X15596643Y10640521D01*
X15596642Y10640522D01*
X15521480Y10565359D01*
X15521478Y10565357D01*
X15490396Y10490317D01*
X15480800Y10467149D01*
X15480800Y9451149D01*
X15480800Y9344851D01*
X15521479Y9246643D01*
X15836055Y8932067D01*
X15861466Y8877574D01*
X15861800Y8869913D01*
X15861800Y8676061D01*
X15841235Y8619560D01*
X15830000Y8609667D01*
X15830543Y8609040D01*
X15825792Y8604924D01*
X15739488Y8505323D01*
X15684742Y8385446D01*
X15684740Y8385440D01*
X15665987Y8255004D01*
X15665987Y8254997D01*
X15684740Y8124561D01*
X15684741Y8124556D01*
X15684742Y8124554D01*
X15704176Y8082000D01*
X15739489Y8004675D01*
X15771236Y7968038D01*
X15825791Y7905078D01*
X15825793Y7905077D01*
X15825794Y7905076D01*
X15936653Y7833831D01*
X15936654Y7833831D01*
X15936657Y7833829D01*
X16022782Y7808541D01*
X16063101Y7796701D01*
X16063104Y7796701D01*
X16063106Y7796700D01*
X16063107Y7796700D01*
X16194893Y7796700D01*
X16194894Y7796700D01*
X16194896Y7796701D01*
X16194898Y7796701D01*
X16209927Y7801115D01*
X16321343Y7833829D01*
X16432209Y7905078D01*
X16518511Y8004676D01*
X16573258Y8124554D01*
X16575758Y8141940D01*
X16592013Y8254997D01*
X16592013Y8255004D01*
X16573259Y8385440D01*
X16573258Y8385441D01*
X16573258Y8385446D01*
X16518511Y8505324D01*
X16432209Y8604922D01*
X16432208Y8604923D01*
X16432207Y8604924D01*
X16427457Y8609040D01*
X16429505Y8611405D01*
X16400162Y8649969D01*
X16396200Y8676061D01*
X16396200Y9070148D01*
X16396200Y9070149D01*
X16355521Y9168357D01*
X16324619Y9199259D01*
X16280357Y9243522D01*
X16280357Y9243521D01*
X16040945Y9482933D01*
X16015534Y9537427D01*
X16015200Y9545088D01*
X16015200Y10035384D01*
X16035765Y10091885D01*
X16087836Y10121949D01*
X16147050Y10111508D01*
X16185699Y10065448D01*
X16190105Y10047895D01*
X16192742Y10029551D01*
X16202675Y10007801D01*
X16207621Y9994044D01*
X16210490Y9983340D01*
X16210492Y9983335D01*
X16224465Y9959132D01*
X16228296Y9951700D01*
X16247488Y9909677D01*
X16258564Y9896894D01*
X16268250Y9883294D01*
X16270749Y9878966D01*
X16293634Y9856081D01*
X16297896Y9851503D01*
X16324286Y9821047D01*
X16333790Y9810079D01*
X16333793Y9810077D01*
X16342197Y9804676D01*
X16351612Y9797090D01*
X16355965Y9793750D01*
X16355966Y9793749D01*
X16362574Y9789934D01*
X16385982Y9776419D01*
X16389553Y9774242D01*
X16444657Y9738829D01*
X16449725Y9737341D01*
X16458605Y9734208D01*
X16460331Y9733493D01*
X16487904Y9726105D01*
X16489919Y9725539D01*
X16571101Y9701701D01*
X16571104Y9701701D01*
X16571106Y9701700D01*
X16571107Y9701700D01*
X16704968Y9701700D01*
X16713355Y9702300D01*
X16726400Y9702300D01*
X16782901Y9681735D01*
X16812965Y9629664D01*
X16814300Y9614400D01*
X16814300Y5140257D01*
X16814300Y3108258D01*
X16814300Y2987742D01*
X16845492Y2871334D01*
X16905749Y2766965D01*
X16905750Y2766964D01*
X17965111Y1707603D01*
X17990522Y1653109D01*
X17987501Y1621394D01*
X17946229Y1476331D01*
X17927110Y1270001D01*
X17927110Y1270000D01*
X17946229Y1063667D01*
X17946229Y1063666D01*
X17986619Y921714D01*
X18002936Y864365D01*
X18095300Y678875D01*
X18220174Y513514D01*
X18299441Y441252D01*
X18336620Y407359D01*
X18364520Y354097D01*
X18351657Y295362D01*
X18304049Y258636D01*
X18277402Y254500D01*
X17282598Y254500D01*
X17226097Y275065D01*
X17196033Y327136D01*
X17206474Y386350D01*
X17223380Y407359D01*
X17247057Y428945D01*
X17339826Y513514D01*
X17464700Y678875D01*
X17557064Y864365D01*
X17613771Y1063670D01*
X17632890Y1270000D01*
X17613771Y1476330D01*
X17596352Y1537550D01*
X17583728Y1581920D01*
X17557064Y1675635D01*
X17464700Y1861125D01*
X17339826Y2026486D01*
X17237311Y2119941D01*
X17186694Y2166085D01*
X17186685Y2166091D01*
X17010517Y2275169D01*
X17010511Y2275172D01*
X16817296Y2350023D01*
X16817284Y2350027D01*
X16613609Y2388100D01*
X16613607Y2388100D01*
X16406393Y2388100D01*
X16406390Y2388100D01*
X16202715Y2350027D01*
X16202703Y2350023D01*
X16009483Y2275170D01*
X16009480Y2275168D01*
X15990382Y2263343D01*
X15931517Y2251085D01*
X15881955Y2275923D01*
X15732109Y2425769D01*
X15391357Y2766521D01*
X15391355Y2766522D01*
X15391356Y2766522D01*
X15333827Y2790351D01*
X15293149Y2807200D01*
X13007149Y2807200D01*
X12900851Y2807200D01*
X12838919Y2781548D01*
X12802640Y2766520D01*
X12795445Y2761712D01*
X12793747Y2764254D01*
X12751674Y2744634D01*
X12744013Y2744300D01*
X12634101Y2744300D01*
X12507657Y2707171D01*
X12507653Y2707170D01*
X12396794Y2635925D01*
X12396789Y2635920D01*
X12310489Y2536326D01*
X12255742Y2416446D01*
X12255740Y2416440D01*
X12236987Y2286004D01*
X12236987Y2285997D01*
X12241851Y2252166D01*
X12229537Y2193314D01*
X12182273Y2156146D01*
X12122177Y2158054D01*
X12108573Y2164923D01*
X11930517Y2275169D01*
X11930511Y2275172D01*
X11753347Y2343805D01*
X11708090Y2383391D01*
X11697200Y2425769D01*
X11697200Y6657148D01*
X11697200Y6657149D01*
X11656521Y6755357D01*
X11648720Y6763158D01*
X11581357Y6830522D01*
X11581357Y6830521D01*
X9817945Y8593933D01*
X9792534Y8648427D01*
X9792200Y8656088D01*
X9792200Y8921713D01*
X9812765Y8978214D01*
X9864836Y9008278D01*
X9924050Y8997837D01*
X9942255Y8983867D01*
X10060478Y8865643D01*
X10108354Y8817768D01*
X10135643Y8790479D01*
X10233851Y8749800D01*
X10233852Y8749800D01*
X11991148Y8749800D01*
X11991149Y8749800D01*
X12089357Y8790479D01*
X12466832Y9167956D01*
X12521326Y9193366D01*
X12528987Y9193700D01*
X12638893Y9193700D01*
X12638894Y9193700D01*
X12638896Y9193701D01*
X12638898Y9193701D01*
X12657826Y9199259D01*
X12765343Y9230829D01*
X12876209Y9302078D01*
X12962511Y9401676D01*
X13017258Y9521554D01*
X13020642Y9545088D01*
X13036013Y9651997D01*
X13036013Y9652004D01*
X13017259Y9782440D01*
X13017258Y9782441D01*
X13017258Y9782446D01*
X12962511Y9902324D01*
X12962510Y9902325D01*
X12962510Y9902326D01*
X12895364Y9979816D01*
X12876209Y10001922D01*
X12876206Y10001924D01*
X12876205Y10001925D01*
X12765346Y10073170D01*
X12765343Y10073171D01*
X12740053Y10080597D01*
X12638898Y10110300D01*
X12638894Y10110300D01*
X12507106Y10110300D01*
X12507101Y10110300D01*
X12380657Y10073171D01*
X12380653Y10073170D01*
X12269794Y10001925D01*
X12269789Y10001920D01*
X12183489Y9902326D01*
X12128742Y9782446D01*
X12128740Y9782440D01*
X12109987Y9652004D01*
X12109987Y9652002D01*
X12109987Y9652000D01*
X12113938Y9624521D01*
X12114427Y9621119D01*
X12102111Y9562267D01*
X12089576Y9546457D01*
X11853067Y9309946D01*
X11798573Y9284535D01*
X11790912Y9284200D01*
X11029668Y9284200D01*
X10973167Y9304765D01*
X10943103Y9356836D01*
X10953544Y9416050D01*
X10963238Y9429662D01*
X10963348Y9429789D01*
X10994011Y9465176D01*
X11048758Y9585054D01*
X11053943Y9621119D01*
X11067513Y9715497D01*
X11067513Y9715502D01*
X11063073Y9746382D01*
X11075387Y9805235D01*
X11087919Y9821043D01*
X12530933Y11264055D01*
X12585427Y11289466D01*
X12593088Y11289800D01*
X14443970Y11289800D01*
X14500471Y11269235D01*
X14510400Y11259462D01*
X14555791Y11207078D01*
X14555793Y11207077D01*
X14555794Y11207076D01*
X14666653Y11135831D01*
X14666654Y11135831D01*
X14666657Y11135829D01*
X14752782Y11110541D01*
X14793101Y11098701D01*
X14793104Y11098701D01*
X14793106Y11098700D01*
X14793107Y11098700D01*
X14924893Y11098700D01*
X14924894Y11098700D01*
X14924896Y11098701D01*
X14924898Y11098701D01*
X14939927Y11103115D01*
X15051343Y11135829D01*
X15162209Y11207078D01*
X15248511Y11306676D01*
X15303258Y11426554D01*
X15322013Y11557000D01*
X15322013Y11557004D01*
X15303259Y11687440D01*
X15303258Y11687441D01*
X15303258Y11687446D01*
X15248511Y11807324D01*
X15248510Y11807325D01*
X15248510Y11807326D01*
X15173467Y11893929D01*
X15162209Y11906922D01*
X15162206Y11906924D01*
X15162205Y11906925D01*
X15051346Y11978170D01*
X15051343Y11978171D01*
X15026053Y11985597D01*
X14924898Y12015300D01*
X14924894Y12015300D01*
X14793106Y12015300D01*
X14793101Y12015300D01*
X14666657Y11978171D01*
X14666653Y11978170D01*
X14555794Y11906925D01*
X14555789Y11906920D01*
X14510400Y11854538D01*
X14457858Y11825304D01*
X14443970Y11824200D01*
X12499149Y11824200D01*
X12392851Y11824200D01*
X12369858Y11814676D01*
X12294644Y11783522D01*
X10710666Y10199545D01*
X10656172Y10174134D01*
X10648511Y10173800D01*
X10538601Y10173800D01*
X10412865Y10136879D01*
X10352859Y10140692D01*
X10309342Y10182184D01*
X10300200Y10221218D01*
X10300200Y10774914D01*
X10320765Y10831415D01*
X10325924Y10837048D01*
X10434833Y10945957D01*
X10489325Y10971366D01*
X10496986Y10971700D01*
X10606893Y10971700D01*
X10606894Y10971700D01*
X10606896Y10971701D01*
X10606898Y10971701D01*
X10621927Y10976115D01*
X10733343Y11008829D01*
X10844209Y11080078D01*
X10930511Y11179676D01*
X10985258Y11299554D01*
X10987666Y11316304D01*
X11004013Y11429997D01*
X11004013Y11430004D01*
X10985259Y11560440D01*
X10985258Y11560441D01*
X10985258Y11560446D01*
X10930511Y11680324D01*
X10930510Y11680325D01*
X10930510Y11680326D01*
X10879521Y11739170D01*
X10844209Y11779922D01*
X10844206Y11779924D01*
X10844205Y11779925D01*
X10733343Y11851172D01*
X10732074Y11851751D01*
X10731382Y11852432D01*
X10728055Y11854570D01*
X10728502Y11855267D01*
X10689222Y11893929D01*
X10683508Y11953784D01*
X10688631Y11968216D01*
X10731258Y12061554D01*
X10740844Y12128227D01*
X10750013Y12191997D01*
X10750013Y12192004D01*
X10731259Y12322440D01*
X10731257Y12322449D01*
X10708680Y12371884D01*
X10703914Y12431822D01*
X10738791Y12480801D01*
X10788636Y12496300D01*
X17098610Y12496300D01*
X17155111Y12475735D01*
X17160765Y12470555D01*
X17551083Y12080237D01*
X17575933Y12030592D01*
X17589740Y11934560D01*
X17589741Y11934556D01*
X17589742Y11934554D01*
X17605954Y11899055D01*
X17644489Y11814675D01*
X17684125Y11768933D01*
X17730791Y11715078D01*
X17730793Y11715077D01*
X17730794Y11715076D01*
X17841653Y11643831D01*
X17841654Y11643831D01*
X17841657Y11643829D01*
X17927782Y11618541D01*
X17968101Y11606701D01*
X17968104Y11606701D01*
X17968106Y11606700D01*
X17968107Y11606700D01*
X18099893Y11606700D01*
X18099894Y11606700D01*
X18099896Y11606701D01*
X18099898Y11606701D01*
X18114927Y11611115D01*
X18226343Y11643829D01*
X18337209Y11715078D01*
X18423511Y11814676D01*
X18478258Y11934554D01*
X18484529Y11978171D01*
X18497013Y12064997D01*
X18497013Y12065004D01*
X18478259Y12195440D01*
X18478258Y12195441D01*
X18478258Y12195446D01*
X18423511Y12315324D01*
X18423510Y12315325D01*
X18423510Y12315326D01*
X18380360Y12365123D01*
X18337209Y12414922D01*
X18337206Y12414924D01*
X18337205Y12414925D01*
X18305105Y12435554D01*
X18268691Y12483401D01*
X18271552Y12543460D01*
X18305105Y12583446D01*
X18309263Y12586119D01*
X18337209Y12604078D01*
X18423511Y12703676D01*
X18478258Y12823554D01*
X18479249Y12830446D01*
X18497013Y12953997D01*
X18497013Y12954004D01*
X18478259Y13084440D01*
X18478258Y13084441D01*
X18478258Y13084446D01*
X18423511Y13204324D01*
X18423510Y13204325D01*
X18423510Y13204326D01*
X18380360Y13254123D01*
X18337209Y13303922D01*
X18337206Y13303924D01*
X18337205Y13303925D01*
X18226346Y13375170D01*
X18226343Y13375171D01*
X18201053Y13382597D01*
X18099898Y13412300D01*
X18099894Y13412300D01*
X18079790Y13412300D01*
X18023289Y13432865D01*
X18017635Y13438045D01*
X17917627Y13538053D01*
X17917626Y13538055D01*
X17856055Y13599626D01*
X17780646Y13643164D01*
X17780643Y13643166D01*
X17696539Y13665700D01*
X17696538Y13665700D01*
X10915636Y13665700D01*
X10859135Y13686265D01*
X10829071Y13738336D01*
X10835680Y13790116D01*
X10858257Y13839552D01*
X10858256Y13839552D01*
X10858258Y13839554D01*
X10877013Y13970000D01*
X10877013Y13970004D01*
X10858259Y14100440D01*
X10858258Y14100441D01*
X10858258Y14100446D01*
X10803511Y14220324D01*
X10803510Y14220325D01*
X10803510Y14220326D01*
X10760360Y14270123D01*
X10717209Y14319922D01*
X10717206Y14319924D01*
X10717205Y14319925D01*
X10606346Y14391170D01*
X10606343Y14391171D01*
X10581053Y14398597D01*
X10479898Y14428300D01*
X10479894Y14428300D01*
X10348106Y14428300D01*
X10348101Y14428300D01*
X10221657Y14391171D01*
X10221653Y14391170D01*
X10110794Y14319925D01*
X10110789Y14319920D01*
X10065400Y14267538D01*
X10012858Y14238304D01*
X9998970Y14237200D01*
X7871484Y14237200D01*
X7814983Y14257765D01*
X7784919Y14309836D01*
X7784479Y14312592D01*
X7778462Y14354440D01*
X7778461Y14354441D01*
X7778461Y14354446D01*
X7723714Y14474324D01*
X7723713Y14474325D01*
X7723713Y14474326D01*
X7680563Y14524123D01*
X7637412Y14573922D01*
X7637409Y14573924D01*
X7637408Y14573925D01*
X7526549Y14645170D01*
X7526546Y14645171D01*
X7501256Y14652597D01*
X7400101Y14682300D01*
X7400097Y14682300D01*
X7268309Y14682300D01*
X7268304Y14682300D01*
X7141860Y14645171D01*
X7141856Y14645170D01*
X7030997Y14573925D01*
X7030992Y14573920D01*
X6944692Y14474326D01*
X6889945Y14354446D01*
X6889943Y14354440D01*
X6871190Y14224004D01*
X6871190Y14223997D01*
X6889943Y14093561D01*
X6889945Y14093555D01*
X6944692Y13973675D01*
X6966123Y13948943D01*
X6987582Y13892776D01*
X6967916Y13835955D01*
X6947219Y13817437D01*
X6936336Y13810443D01*
X6936332Y13810440D01*
X6850031Y13710842D01*
X6795285Y13590965D01*
X6795283Y13590959D01*
X6776530Y13460523D01*
X6776530Y13460516D01*
X6795283Y13330080D01*
X6795284Y13330075D01*
X6795285Y13330073D01*
X6850032Y13210195D01*
X6897513Y13155399D01*
X6912472Y13138135D01*
X6933930Y13081967D01*
X6914264Y13025147D01*
X6912472Y13023011D01*
X6849488Y12950323D01*
X6794742Y12830446D01*
X6794740Y12830440D01*
X6775987Y12700004D01*
X6775987Y12699997D01*
X6794740Y12569561D01*
X6794742Y12569555D01*
X6849489Y12449675D01*
X6872028Y12423664D01*
X6935791Y12350078D01*
X6935793Y12350077D01*
X6935794Y12350076D01*
X7046653Y12278831D01*
X7046654Y12278831D01*
X7046657Y12278829D01*
X7132782Y12253541D01*
X7173101Y12241701D01*
X7173104Y12241701D01*
X7173106Y12241700D01*
X7173107Y12241700D01*
X7304893Y12241700D01*
X7304894Y12241700D01*
X7304896Y12241701D01*
X7304898Y12241701D01*
X7319927Y12246115D01*
X7431343Y12278829D01*
X7542209Y12350078D01*
X7628511Y12449676D01*
X7628512Y12449680D01*
X7631912Y12454967D01*
X7634550Y12453271D01*
X7668549Y12487783D01*
X7706294Y12496300D01*
X9366213Y12496300D01*
X9422714Y12475735D01*
X9452778Y12423664D01*
X9442337Y12364450D01*
X9428371Y12346250D01*
X9050345Y11968223D01*
X8691367Y11609245D01*
X8636873Y11583834D01*
X8629212Y11583500D01*
X7749233Y11583500D01*
X7692732Y11604065D01*
X7682803Y11613838D01*
X7681660Y11615157D01*
X7637412Y11666222D01*
X7637409Y11666224D01*
X7637408Y11666225D01*
X7526549Y11737470D01*
X7526546Y11737471D01*
X7501256Y11744897D01*
X7400101Y11774600D01*
X7400097Y11774600D01*
X7268309Y11774600D01*
X7268304Y11774600D01*
X7141860Y11737471D01*
X7141856Y11737470D01*
X7030997Y11666225D01*
X7030992Y11666220D01*
X6944692Y11566626D01*
X6889945Y11446746D01*
X6889943Y11446740D01*
X6871190Y11316304D01*
X6871190Y11316296D01*
X6881228Y11246472D01*
X6868913Y11187620D01*
X6821649Y11150452D01*
X6761553Y11152361D01*
X6732070Y11171808D01*
X6552157Y11351721D01*
X6453949Y11392400D01*
X6453948Y11392400D01*
X4515888Y11392400D01*
X4459387Y11412965D01*
X4453733Y11418145D01*
X3798145Y12073733D01*
X3772734Y12128227D01*
X3772400Y12135888D01*
X3772400Y17084806D01*
X4460700Y17084806D01*
X4460700Y16951195D01*
X4486765Y16820151D01*
X4486768Y16820143D01*
X4537895Y16696710D01*
X4537895Y16696708D01*
X4537898Y16696704D01*
X4612130Y16585609D01*
X4706609Y16491130D01*
X4817704Y16416898D01*
X4817706Y16416897D01*
X4817708Y16416896D01*
X4941142Y16365769D01*
X4941150Y16365766D01*
X4985027Y16357039D01*
X5072193Y16339700D01*
X5072202Y16339700D01*
X5075022Y16339422D01*
X5076035Y16338937D01*
X5076428Y16338858D01*
X5076407Y16338758D01*
X5129237Y16313423D01*
X5154056Y16258657D01*
X5137866Y16200751D01*
X5088756Y16167151D01*
X5088799Y16166991D01*
X5088344Y16166870D01*
X5088242Y16166799D01*
X5087657Y16166686D01*
X4936866Y16126282D01*
X4805637Y16050517D01*
X4698483Y15943363D01*
X4622718Y15812134D01*
X4597930Y15719621D01*
X4583500Y15665766D01*
X4583500Y15514234D01*
X4622719Y15367865D01*
X4698485Y15236635D01*
X4805635Y15129485D01*
X4936865Y15053719D01*
X5083234Y15014500D01*
X5234765Y15014500D01*
X5234766Y15014500D01*
X5381135Y15053719D01*
X5512365Y15129485D01*
X5619515Y15236635D01*
X5695281Y15367865D01*
X5734500Y15514234D01*
X5734500Y15665766D01*
X5695281Y15812135D01*
X5619515Y15943365D01*
X5512365Y16050515D01*
X5381135Y16126281D01*
X5381134Y16126282D01*
X5381133Y16126282D01*
X5274442Y16154869D01*
X5234766Y16165500D01*
X5234765Y16165500D01*
X5229559Y16166895D01*
X5180306Y16201382D01*
X5164743Y16259461D01*
X5190154Y16313954D01*
X5244648Y16339365D01*
X5252309Y16339700D01*
X6305805Y16339700D01*
X6305807Y16339700D01*
X6392380Y16356921D01*
X6436849Y16365766D01*
X6436850Y16365767D01*
X6436853Y16365767D01*
X6560291Y16416896D01*
X6560292Y16416896D01*
X6560293Y16416897D01*
X6560296Y16416898D01*
X6671391Y16491130D01*
X6765870Y16585609D01*
X6840102Y16696704D01*
X6891233Y16820147D01*
X6917300Y16951193D01*
X6917300Y17084807D01*
X6903748Y17152937D01*
X6891234Y17215850D01*
X6891231Y17215858D01*
X6840104Y17339291D01*
X6840104Y17339293D01*
X6802511Y17395554D01*
X6765870Y17450391D01*
X6671391Y17544870D01*
X6560296Y17619102D01*
X6560294Y17619103D01*
X6560291Y17619105D01*
X6436857Y17670232D01*
X6436849Y17670235D01*
X6338344Y17689828D01*
X6305807Y17696300D01*
X5072193Y17696300D01*
X5043249Y17690543D01*
X4941150Y17670235D01*
X4941142Y17670232D01*
X4817709Y17619105D01*
X4817707Y17619105D01*
X4706611Y17544872D01*
X4612128Y17450389D01*
X4537895Y17339293D01*
X4537895Y17339291D01*
X4486768Y17215858D01*
X4486765Y17215850D01*
X4460700Y17084806D01*
X3772400Y17084806D01*
X3772400Y17328112D01*
X3792965Y17384613D01*
X3798145Y17390267D01*
X5291933Y18884055D01*
X5346427Y18909466D01*
X5354088Y18909800D01*
X6950970Y18909800D01*
X7007471Y18889235D01*
X7017400Y18879462D01*
X7062791Y18827078D01*
X7062793Y18827077D01*
X7062794Y18827076D01*
X7173653Y18755831D01*
X7173654Y18755831D01*
X7173657Y18755829D01*
X7259782Y18730541D01*
X7300101Y18718701D01*
X7300104Y18718701D01*
X7300106Y18718700D01*
X7300107Y18718700D01*
X7431893Y18718700D01*
X7431894Y18718700D01*
X7431896Y18718701D01*
X7431898Y18718701D01*
X7446927Y18723115D01*
X7558343Y18755829D01*
X7669209Y18827078D01*
X7714600Y18879462D01*
X7767142Y18908696D01*
X7781030Y18909800D01*
X9395555Y18909800D01*
X9452056Y18889235D01*
X9482120Y18837164D01*
X9471679Y18777950D01*
X9461985Y18764338D01*
X9417100Y18712538D01*
X9364558Y18683304D01*
X9350670Y18682200D01*
X9019149Y18682200D01*
X8912851Y18682200D01*
X8872173Y18665351D01*
X8814644Y18641522D01*
X8272166Y18099045D01*
X8217672Y18073634D01*
X8210011Y18073300D01*
X8100101Y18073300D01*
X7973657Y18036171D01*
X7973653Y18036170D01*
X7862794Y17964925D01*
X7862789Y17964920D01*
X7776489Y17865326D01*
X7721742Y17745446D01*
X7721740Y17745440D01*
X7702987Y17615004D01*
X7702987Y17614997D01*
X7721740Y17484561D01*
X7721742Y17484555D01*
X7776489Y17364675D01*
X7808995Y17327162D01*
X7862791Y17265078D01*
X7862793Y17265077D01*
X7862794Y17265076D01*
X7973653Y17193831D01*
X7973654Y17193831D01*
X7973657Y17193829D01*
X8048129Y17171962D01*
X8100101Y17156701D01*
X8100104Y17156701D01*
X8100106Y17156700D01*
X8100107Y17156700D01*
X8231893Y17156700D01*
X8231894Y17156700D01*
X8231896Y17156701D01*
X8231898Y17156701D01*
X8253152Y17162942D01*
X8358343Y17193829D01*
X8469209Y17265078D01*
X8555511Y17364676D01*
X8610258Y17484554D01*
X8629013Y17615000D01*
X8629012Y17615004D01*
X8624573Y17645881D01*
X8636887Y17704734D01*
X8649423Y17720546D01*
X9050933Y18122055D01*
X9105427Y18147466D01*
X9113088Y18147800D01*
X9350670Y18147800D01*
X9407171Y18127235D01*
X9417100Y18117462D01*
X9462491Y18065078D01*
X9462493Y18065077D01*
X9462494Y18065076D01*
X9573353Y17993831D01*
X9573354Y17993831D01*
X9573357Y17993829D01*
X9659482Y17968541D01*
X9699801Y17956701D01*
X9699804Y17956701D01*
X9699806Y17956700D01*
X9699807Y17956700D01*
X9831593Y17956700D01*
X9831594Y17956700D01*
X9831596Y17956701D01*
X9831598Y17956701D01*
X9850049Y17962119D01*
X9958043Y17993829D01*
X10068909Y18065078D01*
X10155211Y18164676D01*
X10209958Y18284554D01*
X10225825Y18394912D01*
X10228713Y18414997D01*
X10228713Y18415004D01*
X10209959Y18545440D01*
X10209958Y18545441D01*
X10209958Y18545446D01*
X10155211Y18665324D01*
X10155210Y18665325D01*
X10155210Y18665326D01*
X10069415Y18764338D01*
X10047956Y18820505D01*
X10067622Y18877326D01*
X10119210Y18908212D01*
X10135845Y18909800D01*
X10213148Y18909800D01*
X10213149Y18909800D01*
X10311357Y18950479D01*
X11323832Y19962956D01*
X11378326Y19988366D01*
X11385987Y19988700D01*
X11495893Y19988700D01*
X11495894Y19988700D01*
X11495896Y19988701D01*
X11495898Y19988701D01*
X11510927Y19993115D01*
X11622343Y20025829D01*
X11733209Y20097078D01*
X11819511Y20196676D01*
X11874258Y20316554D01*
X11874534Y20318478D01*
X11893013Y20446997D01*
X11893013Y20447002D01*
X11888573Y20477881D01*
X11900887Y20536734D01*
X11913423Y20552546D01*
X12276933Y20916055D01*
X12331427Y20941466D01*
X12339088Y20941800D01*
X18888970Y20941800D01*
X18945471Y20921235D01*
X18955400Y20911462D01*
X19000791Y20859078D01*
X19000793Y20859077D01*
X19000794Y20859076D01*
X19111653Y20787831D01*
X19111654Y20787831D01*
X19111657Y20787829D01*
X19197782Y20762541D01*
X19238101Y20750701D01*
X19238104Y20750701D01*
X19238106Y20750700D01*
X19238107Y20750700D01*
X19369893Y20750700D01*
X19369894Y20750700D01*
X19369896Y20750701D01*
X19369898Y20750701D01*
X19384927Y20755115D01*
X19496343Y20787829D01*
X19607209Y20859078D01*
X19693511Y20958676D01*
X19748258Y21078554D01*
X19749948Y21090311D01*
X19767013Y21208997D01*
X19767013Y21209003D01*
X19753868Y21300430D01*
X19766182Y21359282D01*
X19813445Y21396450D01*
X19873542Y21394542D01*
X19903028Y21375094D01*
X22567055Y18711067D01*
X22592466Y18656573D01*
X22592800Y18648912D01*
X22592800Y18328061D01*
X22572235Y18271560D01*
X22561000Y18261667D01*
X22561543Y18261040D01*
X22556792Y18256924D01*
X22470488Y18157323D01*
X22415742Y18037446D01*
X22415740Y18037440D01*
X22396987Y17907004D01*
X22396987Y17906997D01*
X22415740Y17776561D01*
X22415741Y17776556D01*
X22415742Y17776554D01*
X22438388Y17726966D01*
X22470489Y17656675D01*
X22506601Y17615000D01*
X22556791Y17557078D01*
X22556793Y17557077D01*
X22556794Y17557076D01*
X22667653Y17485831D01*
X22667654Y17485831D01*
X22667657Y17485829D01*
X22753782Y17460541D01*
X22794101Y17448701D01*
X22794104Y17448701D01*
X22794106Y17448700D01*
X22794107Y17448700D01*
X22904204Y17448700D01*
X22960705Y17428135D01*
X22990769Y17376064D01*
X22985413Y17327162D01*
X22939247Y17215708D01*
X22939245Y17215704D01*
X22917603Y17106901D01*
X22917604Y17106900D01*
X23304237Y17106900D01*
X23291000Y17057496D01*
X23291000Y16978504D01*
X23304237Y16929100D01*
X22917603Y16929100D01*
X22939245Y16820297D01*
X22939247Y16820293D01*
X22990339Y16696943D01*
X22990341Y16696940D01*
X23064514Y16585932D01*
X23158931Y16491515D01*
X23269939Y16417342D01*
X23269942Y16417340D01*
X23393292Y16366248D01*
X23393296Y16366246D01*
X23524244Y16340200D01*
X23802099Y16340200D01*
X23802100Y16340201D01*
X23802100Y16718000D01*
X23979900Y16718000D01*
X23979900Y16340201D01*
X23979901Y16340200D01*
X24257756Y16340200D01*
X24388703Y16366246D01*
X24388707Y16366248D01*
X24512057Y16417340D01*
X24512060Y16417342D01*
X24623068Y16491515D01*
X24717485Y16585932D01*
X24791658Y16696940D01*
X24791660Y16696943D01*
X24842752Y16820293D01*
X24842754Y16820297D01*
X24864396Y16929100D01*
X24477763Y16929100D01*
X24491000Y16978504D01*
X24491000Y17057496D01*
X24477763Y17106900D01*
X24864396Y17106900D01*
X24864396Y17106901D01*
X24842754Y17215704D01*
X24842752Y17215708D01*
X24791660Y17339058D01*
X24791658Y17339061D01*
X24717485Y17450069D01*
X24623068Y17544486D01*
X24512060Y17618659D01*
X24512057Y17618661D01*
X24388707Y17669753D01*
X24388703Y17669755D01*
X24257756Y17695800D01*
X23979901Y17695800D01*
X23979900Y17695799D01*
X23979900Y17318000D01*
X23802100Y17318000D01*
X23802100Y17695799D01*
X23802099Y17695800D01*
X23524243Y17695800D01*
X23407659Y17672612D01*
X23348232Y17681759D01*
X23308588Y17726966D01*
X23303507Y17771333D01*
X23323013Y17906999D01*
X23323013Y17907004D01*
X23304259Y18037440D01*
X23304258Y18037441D01*
X23304258Y18037446D01*
X23249511Y18157324D01*
X23163209Y18256922D01*
X23163208Y18256923D01*
X23163207Y18256924D01*
X23158457Y18261040D01*
X23160505Y18263405D01*
X23131162Y18301969D01*
X23127200Y18328061D01*
X23127200Y18849148D01*
X23127200Y18849149D01*
X23086521Y18947357D01*
X23070707Y18963171D01*
X23011357Y19022522D01*
X23011357Y19022521D01*
X20077057Y21956821D01*
X19978849Y21997500D01*
X12004449Y21997500D01*
X11898151Y21997500D01*
X11857473Y21980651D01*
X11799944Y21956822D01*
X9948067Y20104945D01*
X9893573Y20079534D01*
X9885912Y20079200D01*
X5260149Y20079200D01*
X5153851Y20079200D01*
X5113173Y20062351D01*
X5055644Y20038522D01*
X3852067Y18834945D01*
X3797573Y18809534D01*
X3789912Y18809200D01*
X2701030Y18809200D01*
X2644529Y18829765D01*
X2634600Y18839538D01*
X2605345Y18873300D01*
X2589209Y18891922D01*
X2589206Y18891924D01*
X2589205Y18891925D01*
X2478346Y18963170D01*
X2478343Y18963171D01*
X2453053Y18970597D01*
X2351898Y19000300D01*
X2351894Y19000300D01*
X2220106Y19000300D01*
X2220101Y19000300D01*
X2093657Y18963171D01*
X2093653Y18963170D01*
X1982794Y18891925D01*
X1982789Y18891920D01*
X1896489Y18792326D01*
X1841742Y18672446D01*
X1841740Y18672440D01*
X1822987Y18542004D01*
X1822987Y18541997D01*
X1841740Y18411561D01*
X1841741Y18411556D01*
X1841742Y18411554D01*
X1869115Y18351615D01*
X1896489Y18291675D01*
X1937400Y18244462D01*
X1982791Y18192078D01*
X1982793Y18192077D01*
X1982794Y18192076D01*
X2093653Y18120831D01*
X2093654Y18120831D01*
X2093657Y18120829D01*
X2179782Y18095541D01*
X2220101Y18083701D01*
X2220104Y18083701D01*
X2220106Y18083700D01*
X2220107Y18083700D01*
X2351893Y18083700D01*
X2351894Y18083700D01*
X2351896Y18083701D01*
X2351898Y18083701D01*
X2366927Y18088115D01*
X2478343Y18120829D01*
X2589209Y18192078D01*
X2634600Y18244462D01*
X2687142Y18273696D01*
X2701030Y18274800D01*
X2819900Y18274800D01*
X2876401Y18254235D01*
X2906465Y18202164D01*
X2907800Y18186900D01*
X2907800Y11864149D01*
X2907800Y11757851D01*
X2948479Y11659643D01*
X4039643Y10568479D01*
X4137851Y10527800D01*
X4244149Y10527800D01*
X4946636Y10527800D01*
X5003137Y10507235D01*
X5033201Y10455164D01*
X5022760Y10395950D01*
X4976700Y10357301D01*
X4969386Y10354995D01*
X4936866Y10346282D01*
X4805637Y10270517D01*
X4698483Y10163363D01*
X4622718Y10032134D01*
X4583500Y9885766D01*
X4583500Y9734235D01*
X4613808Y9621119D01*
X4622719Y9587865D01*
X4698485Y9456635D01*
X4805635Y9349485D01*
X4936865Y9273719D01*
X5083234Y9234500D01*
X5088799Y9233009D01*
X5087980Y9229955D01*
X5131232Y9207427D01*
X5154230Y9151872D01*
X5136137Y9094531D01*
X5085420Y9062236D01*
X5075034Y9060580D01*
X5072196Y9060301D01*
X4941150Y9034235D01*
X4941142Y9034232D01*
X4817709Y8983105D01*
X4817707Y8983105D01*
X4706611Y8908872D01*
X4612128Y8814389D01*
X4537895Y8703293D01*
X4537895Y8703291D01*
X4486768Y8579858D01*
X4486765Y8579850D01*
X4460700Y8448806D01*
X4460700Y8315195D01*
X4486765Y8184151D01*
X4486768Y8184143D01*
X4537895Y8060710D01*
X4537895Y8060708D01*
X4567185Y8016873D01*
X4612130Y7949609D01*
X4706609Y7855130D01*
X4817704Y7780898D01*
X4817706Y7780897D01*
X4817708Y7780896D01*
X4941142Y7729769D01*
X4941150Y7729766D01*
X5007116Y7716645D01*
X5072193Y7703700D01*
X5072195Y7703700D01*
X6305805Y7703700D01*
X6305807Y7703700D01*
X6392380Y7720921D01*
X6436849Y7729766D01*
X6436850Y7729767D01*
X6436853Y7729767D01*
X6560291Y7780896D01*
X6560292Y7780896D01*
X6560293Y7780897D01*
X6560296Y7780898D01*
X6671391Y7855130D01*
X6765870Y7949609D01*
X6810815Y8016875D01*
X6859303Y8052426D01*
X6919301Y8048494D01*
X6962735Y8006915D01*
X6971800Y7968038D01*
X6971800Y7914061D01*
X6951235Y7857560D01*
X6940000Y7847667D01*
X6940543Y7847040D01*
X6935792Y7842924D01*
X6849488Y7743323D01*
X6794742Y7623446D01*
X6794740Y7623440D01*
X6775987Y7493004D01*
X6775987Y7492997D01*
X6794740Y7362561D01*
X6794741Y7362556D01*
X6794742Y7362554D01*
X6803975Y7342337D01*
X6849489Y7242675D01*
X6900497Y7183809D01*
X6935791Y7143078D01*
X6935793Y7143077D01*
X6935794Y7143076D01*
X7046653Y7071831D01*
X7046654Y7071831D01*
X7046657Y7071829D01*
X7132782Y7046541D01*
X7173101Y7034701D01*
X7173104Y7034701D01*
X7173106Y7034700D01*
X7173107Y7034700D01*
X7304893Y7034700D01*
X7304894Y7034700D01*
X7304896Y7034701D01*
X7304898Y7034701D01*
X7338007Y7044423D01*
X7430637Y7071622D01*
X7490641Y7067809D01*
X7534157Y7026317D01*
X7543300Y6987283D01*
X7543300Y5816100D01*
X7522735Y5759599D01*
X7470664Y5729535D01*
X7455400Y5728200D01*
X7228145Y5728200D01*
X7171644Y5748765D01*
X7141580Y5800836D01*
X7152021Y5860050D01*
X7161715Y5873662D01*
X7184045Y5899432D01*
X7247511Y5972676D01*
X7302258Y6092554D01*
X7312689Y6165106D01*
X7321013Y6222997D01*
X7321013Y6223004D01*
X7302259Y6353440D01*
X7302258Y6353441D01*
X7302258Y6353446D01*
X7247511Y6473324D01*
X7247510Y6473325D01*
X7247510Y6473326D01*
X7204360Y6523123D01*
X7161209Y6572922D01*
X7161206Y6572924D01*
X7161205Y6572925D01*
X7050346Y6644170D01*
X7050343Y6644171D01*
X7006148Y6657148D01*
X6923898Y6681300D01*
X6923894Y6681300D01*
X6813988Y6681300D01*
X6757487Y6701865D01*
X6751834Y6707045D01*
X6628357Y6830521D01*
X6628356Y6830522D01*
X6570827Y6854351D01*
X6530149Y6871200D01*
X6530148Y6871200D01*
X4673099Y6871200D01*
X4616598Y6891765D01*
X4586534Y6943836D01*
X4585199Y6959100D01*
X4585199Y7256564D01*
X4585198Y7256566D01*
X4574856Y7308566D01*
X4574856Y7308567D01*
X4557114Y7335120D01*
X4535447Y7367547D01*
X4476469Y7406955D01*
X4424461Y7417300D01*
X4424459Y7417300D01*
X3728936Y7417300D01*
X3728934Y7417299D01*
X3676934Y7406957D01*
X3676933Y7406957D01*
X3636797Y7380139D01*
X3617955Y7367548D01*
X3610755Y7362737D01*
X3609960Y7363927D01*
X3563661Y7342337D01*
X3505583Y7357900D01*
X3494233Y7367422D01*
X3494047Y7367546D01*
X3494047Y7367547D01*
X3435069Y7406955D01*
X3383061Y7417300D01*
X3383059Y7417300D01*
X2687536Y7417300D01*
X2687534Y7417299D01*
X2635534Y7406957D01*
X2635533Y7406957D01*
X2576554Y7367548D01*
X2576552Y7367546D01*
X2537145Y7308569D01*
X2526800Y7256560D01*
X2526800Y5951437D01*
X2526801Y5951435D01*
X2537143Y5899435D01*
X2537143Y5899434D01*
X2537144Y5899432D01*
X2537145Y5899431D01*
X2576553Y5840453D01*
X2635531Y5801045D01*
X2687539Y5790700D01*
X2687545Y5790701D01*
X2688800Y5790576D01*
X2689253Y5790359D01*
X2691775Y5789857D01*
X2691646Y5789212D01*
X2743018Y5764582D01*
X2767843Y5709819D01*
X2768100Y5703098D01*
X2768100Y5674552D01*
X2807057Y5580499D01*
X2808779Y5576343D01*
X3075479Y5309643D01*
X3075478Y5309643D01*
X3141867Y5243255D01*
X3150643Y5234479D01*
X3248851Y5193800D01*
X7455400Y5193800D01*
X7511901Y5173235D01*
X7541965Y5121164D01*
X7543300Y5105900D01*
X7543300Y4886258D01*
X7543300Y4765742D01*
X7574492Y4649334D01*
X7634749Y4544965D01*
X7634750Y4544964D01*
X8406555Y3773159D01*
X8431966Y3718665D01*
X8432300Y3711004D01*
X8432300Y2350640D01*
X8411735Y2294139D01*
X8390673Y2275906D01*
X8213314Y2166091D01*
X8213305Y2166085D01*
X8060173Y2026485D01*
X7935302Y1861129D01*
X7935300Y1861126D01*
X7935300Y1861125D01*
X7858855Y1707603D01*
X7842936Y1675634D01*
X7842934Y1675629D01*
X7786229Y1476335D01*
X7786229Y1476334D01*
X7767110Y1270001D01*
X7767110Y1270000D01*
X7786229Y1063667D01*
X7786229Y1063666D01*
X7826619Y921714D01*
X7842936Y864365D01*
X7935300Y678875D01*
X8060174Y513514D01*
X8139441Y441252D01*
X8176620Y407359D01*
X8204520Y354097D01*
X8191657Y295362D01*
X8144049Y258636D01*
X8117402Y254500D01*
X7121856Y254500D01*
X7065355Y275065D01*
X7035291Y327136D01*
X7045732Y386350D01*
X7062638Y407359D01*
X7179453Y513852D01*
X7179457Y513856D01*
X7304272Y679138D01*
X7396597Y864551D01*
X7453276Y1063758D01*
X7453276Y1063759D01*
X7464150Y1181100D01*
X6852100Y1181100D01*
X6858000Y1203120D01*
X6858000Y1336880D01*
X6852100Y1358900D01*
X7464149Y1358900D01*
X7453276Y1476242D01*
X7453276Y1476243D01*
X7396597Y1675450D01*
X7304272Y1860863D01*
X7179457Y2026145D01*
X7179453Y2026149D01*
X7026392Y2165684D01*
X7026383Y2165690D01*
X6850295Y2274719D01*
X6850282Y2274725D01*
X6657159Y2349541D01*
X6657145Y2349545D01*
X6453565Y2387600D01*
X6438901Y2387600D01*
X6438900Y2387599D01*
X6438900Y1772100D01*
X6416880Y1778000D01*
X6283120Y1778000D01*
X6261100Y1772100D01*
X6261100Y2387599D01*
X6261099Y2387600D01*
X6246434Y2387600D01*
X6042854Y2349545D01*
X6042840Y2349541D01*
X5849717Y2274725D01*
X5849704Y2274719D01*
X5673616Y2165690D01*
X5673607Y2165684D01*
X5520546Y2026149D01*
X5520542Y2026145D01*
X5395727Y1860863D01*
X5303402Y1675450D01*
X5246723Y1476243D01*
X5246723Y1476242D01*
X5235850Y1358900D01*
X5847900Y1358900D01*
X5842000Y1336880D01*
X5842000Y1203120D01*
X5847900Y1181100D01*
X5235850Y1181100D01*
X5246723Y1063759D01*
X5246723Y1063758D01*
X5303402Y864551D01*
X5395727Y679138D01*
X5520542Y513856D01*
X5520546Y513852D01*
X5637362Y407359D01*
X5665262Y354097D01*
X5652399Y295362D01*
X5604791Y258636D01*
X5578144Y254500D01*
X342400Y254500D01*
X285899Y275065D01*
X255835Y327136D01*
X254500Y342400D01*
X254500Y2658013D01*
X739500Y2658013D01*
X739500Y2421988D01*
X770307Y2187986D01*
X770310Y2187974D01*
X811118Y2035676D01*
X831394Y1960007D01*
X841306Y1936078D01*
X921713Y1741957D01*
X921714Y1741955D01*
X921716Y1741951D01*
X962636Y1671076D01*
X1039728Y1537548D01*
X1086769Y1476243D01*
X1183408Y1350301D01*
X1350301Y1183408D01*
X1350304Y1183406D01*
X1506350Y1063667D01*
X1537550Y1039727D01*
X1741951Y921716D01*
X1960007Y831394D01*
X2187986Y770307D01*
X2367541Y746669D01*
X2421987Y739500D01*
X2421989Y739500D01*
X2658013Y739500D01*
X2706784Y745922D01*
X2892014Y770307D01*
X3119993Y831394D01*
X3338049Y921716D01*
X3542450Y1039727D01*
X3729699Y1183408D01*
X3896592Y1350301D01*
X4040273Y1537550D01*
X4158284Y1741951D01*
X4248606Y1960007D01*
X4309693Y2187986D01*
X4336915Y2394766D01*
X4340500Y2421988D01*
X4340500Y2658013D01*
X4329096Y2744634D01*
X4309693Y2892014D01*
X4248606Y3119993D01*
X4158284Y3338049D01*
X4040273Y3542450D01*
X3896592Y3729699D01*
X3729699Y3896592D01*
X3598510Y3997257D01*
X3542452Y4040272D01*
X3415331Y4113665D01*
X3338049Y4158284D01*
X3338047Y4158285D01*
X3338045Y4158286D01*
X3338043Y4158287D01*
X3236059Y4200530D01*
X3119993Y4248606D01*
X3119986Y4248608D01*
X2892026Y4309690D01*
X2892014Y4309693D01*
X2658013Y4340500D01*
X2658011Y4340500D01*
X2421989Y4340500D01*
X2421987Y4340500D01*
X2187985Y4309693D01*
X2187973Y4309690D01*
X1960013Y4248608D01*
X1960009Y4248607D01*
X1960007Y4248606D01*
X1960005Y4248605D01*
X1741956Y4158287D01*
X1741954Y4158286D01*
X1537547Y4040272D01*
X1350304Y3896595D01*
X1183405Y3729696D01*
X1039728Y3542453D01*
X921714Y3338046D01*
X921713Y3338044D01*
X831395Y3119995D01*
X831392Y3119987D01*
X770310Y2892027D01*
X770307Y2892015D01*
X739500Y2658013D01*
X254500Y2658013D01*
X254500Y4665733D01*
X275065Y4722234D01*
X327136Y4752298D01*
X386350Y4741857D01*
X408831Y4723294D01*
X430867Y4697862D01*
X430869Y4697860D01*
X430872Y4697857D01*
X430874Y4697856D01*
X430875Y4697855D01*
X506370Y4649337D01*
X551947Y4620047D01*
X690039Y4579500D01*
X690040Y4579500D01*
X833960Y4579500D01*
X833961Y4579500D01*
X972053Y4620047D01*
X1093128Y4697857D01*
X1187377Y4806627D01*
X1247165Y4937543D01*
X1258386Y5015586D01*
X1267647Y5079997D01*
X1267647Y5080004D01*
X1247166Y5222451D01*
X1247165Y5222452D01*
X1247165Y5222457D01*
X1187377Y5353373D01*
X1093128Y5462143D01*
X1093126Y5462144D01*
X1093124Y5462146D01*
X972054Y5539953D01*
X972050Y5539954D01*
X833967Y5580499D01*
X833961Y5580500D01*
X690039Y5580500D01*
X690038Y5580500D01*
X690032Y5580499D01*
X551949Y5539954D01*
X551945Y5539953D01*
X430875Y5462146D01*
X430866Y5462138D01*
X408830Y5436706D01*
X356288Y5407472D01*
X297248Y5418851D01*
X259334Y5465519D01*
X254500Y5494268D01*
X254500Y8470901D01*
X535603Y8470901D01*
X535604Y8470900D01*
X922237Y8470900D01*
X909000Y8421496D01*
X909000Y8342504D01*
X922237Y8293100D01*
X535603Y8293100D01*
X557245Y8184297D01*
X557247Y8184293D01*
X608339Y8060943D01*
X608341Y8060940D01*
X682514Y7949932D01*
X776931Y7855515D01*
X887939Y7781342D01*
X887942Y7781340D01*
X1011292Y7730248D01*
X1011296Y7730246D01*
X1142244Y7704200D01*
X1420099Y7704200D01*
X1420100Y7704201D01*
X1420100Y8082000D01*
X1597900Y8082000D01*
X1597900Y7704201D01*
X1597901Y7704200D01*
X1875756Y7704200D01*
X2006703Y7730246D01*
X2006707Y7730248D01*
X2130057Y7781340D01*
X2130060Y7781342D01*
X2241068Y7855515D01*
X2335485Y7949932D01*
X2409658Y8060940D01*
X2409660Y8060943D01*
X2460752Y8184293D01*
X2460754Y8184297D01*
X2482396Y8293100D01*
X2095763Y8293100D01*
X2109000Y8342504D01*
X2109000Y8421496D01*
X2095763Y8470900D01*
X2482396Y8470900D01*
X2482396Y8470901D01*
X2460754Y8579704D01*
X2460752Y8579708D01*
X2409660Y8703058D01*
X2409658Y8703061D01*
X2335485Y8814069D01*
X2241068Y8908486D01*
X2130060Y8982659D01*
X2130057Y8982661D01*
X2006707Y9033753D01*
X2006703Y9033755D01*
X1875756Y9059800D01*
X1597901Y9059800D01*
X1597900Y9059799D01*
X1597900Y8682000D01*
X1420100Y8682000D01*
X1420100Y9059799D01*
X1420099Y9059800D01*
X1142244Y9059800D01*
X1011296Y9033755D01*
X1011292Y9033753D01*
X887942Y8982661D01*
X887939Y8982659D01*
X776931Y8908486D01*
X682514Y8814069D01*
X608341Y8703061D01*
X608339Y8703058D01*
X557247Y8579708D01*
X557245Y8579704D01*
X535603Y8470901D01*
X254500Y8470901D01*
X254500Y17084806D01*
X530700Y17084806D01*
X530700Y16951195D01*
X556765Y16820151D01*
X556768Y16820143D01*
X607895Y16696710D01*
X607895Y16696708D01*
X607898Y16696704D01*
X682130Y16585609D01*
X776609Y16491130D01*
X887704Y16416898D01*
X887706Y16416897D01*
X887708Y16416896D01*
X1011142Y16365769D01*
X1011150Y16365766D01*
X1077116Y16352645D01*
X1142193Y16339700D01*
X1142195Y16339700D01*
X1875805Y16339700D01*
X1875807Y16339700D01*
X1962380Y16356921D01*
X2006849Y16365766D01*
X2006850Y16365767D01*
X2006853Y16365767D01*
X2130291Y16416896D01*
X2130292Y16416896D01*
X2130293Y16416897D01*
X2130296Y16416898D01*
X2241391Y16491130D01*
X2335870Y16585609D01*
X2410102Y16696704D01*
X2461233Y16820147D01*
X2487300Y16951193D01*
X2487300Y17084807D01*
X2473748Y17152937D01*
X2461234Y17215850D01*
X2461231Y17215858D01*
X2410104Y17339291D01*
X2410104Y17339293D01*
X2372511Y17395554D01*
X2335870Y17450391D01*
X2241391Y17544870D01*
X2130296Y17619102D01*
X2130294Y17619103D01*
X2130291Y17619105D01*
X2006857Y17670232D01*
X2006849Y17670235D01*
X1908344Y17689828D01*
X1875807Y17696300D01*
X1142193Y17696300D01*
X1113249Y17690543D01*
X1011150Y17670235D01*
X1011142Y17670232D01*
X887709Y17619105D01*
X887707Y17619105D01*
X776611Y17544872D01*
X682128Y17450389D01*
X607895Y17339293D01*
X607895Y17339291D01*
X556768Y17215858D01*
X556765Y17215850D01*
X530700Y17084806D01*
X254500Y17084806D01*
X254500Y22978011D01*
X739500Y22978011D01*
X739500Y22741989D01*
X770307Y22507986D01*
X831394Y22280007D01*
X879470Y22163941D01*
X921713Y22061957D01*
X921714Y22061955D01*
X1039728Y21857548D01*
X1166918Y21691792D01*
X1183408Y21670301D01*
X1350301Y21503408D01*
X1438773Y21435521D01*
X1489691Y21396450D01*
X1537550Y21359727D01*
X1741951Y21241716D01*
X1960007Y21151394D01*
X2187986Y21090307D01*
X2367541Y21066669D01*
X2421987Y21059500D01*
X2421989Y21059500D01*
X2658013Y21059500D01*
X2706784Y21065922D01*
X2892014Y21090307D01*
X3119993Y21151394D01*
X3338049Y21241716D01*
X3542450Y21359727D01*
X3729699Y21503408D01*
X3896592Y21670301D01*
X4040273Y21857550D01*
X4158284Y22061951D01*
X4248606Y22280007D01*
X4309693Y22507986D01*
X4340500Y22741989D01*
X4340500Y22978011D01*
X21059500Y22978011D01*
X21059500Y22741989D01*
X21090307Y22507986D01*
X21151394Y22280007D01*
X21199470Y22163941D01*
X21241713Y22061957D01*
X21241714Y22061955D01*
X21359728Y21857548D01*
X21486918Y21691792D01*
X21503408Y21670301D01*
X21670301Y21503408D01*
X21758773Y21435521D01*
X21809691Y21396450D01*
X21857550Y21359727D01*
X22061951Y21241716D01*
X22280007Y21151394D01*
X22507986Y21090307D01*
X22687541Y21066669D01*
X22741987Y21059500D01*
X22741989Y21059500D01*
X22978013Y21059500D01*
X23026784Y21065922D01*
X23212014Y21090307D01*
X23439993Y21151394D01*
X23658049Y21241716D01*
X23862450Y21359727D01*
X24049699Y21503408D01*
X24216592Y21670301D01*
X24360273Y21857550D01*
X24478284Y22061951D01*
X24568606Y22280007D01*
X24629693Y22507986D01*
X24660500Y22741989D01*
X24660500Y22978011D01*
X24629693Y23212014D01*
X24568606Y23439993D01*
X24478284Y23658049D01*
X24360273Y23862450D01*
X24216592Y24049699D01*
X24049699Y24216592D01*
X24028208Y24233082D01*
X23862452Y24360272D01*
X23794316Y24399610D01*
X23658049Y24478284D01*
X23658047Y24478285D01*
X23658045Y24478286D01*
X23658043Y24478287D01*
X23556059Y24520530D01*
X23439993Y24568606D01*
X23439986Y24568608D01*
X23212026Y24629690D01*
X23212014Y24629693D01*
X22978013Y24660500D01*
X22978011Y24660500D01*
X22741989Y24660500D01*
X22741987Y24660500D01*
X22507985Y24629693D01*
X22507973Y24629690D01*
X22280013Y24568608D01*
X22280009Y24568607D01*
X22280007Y24568606D01*
X22280005Y24568605D01*
X22061956Y24478287D01*
X22061954Y24478286D01*
X21857547Y24360272D01*
X21670304Y24216595D01*
X21503405Y24049696D01*
X21359728Y23862453D01*
X21241714Y23658046D01*
X21241713Y23658044D01*
X21165475Y23473990D01*
X21151394Y23439993D01*
X21090307Y23212014D01*
X21059500Y22978011D01*
X4340500Y22978011D01*
X4309693Y23212014D01*
X4248606Y23439993D01*
X4158284Y23658049D01*
X4153272Y23666730D01*
X11404575Y23666730D01*
X11404576Y23666730D01*
X14042614Y23666730D01*
X14042615Y23666730D01*
X14042615Y24950581D01*
X11404575Y24950581D01*
X11404575Y23666730D01*
X4153272Y23666730D01*
X4040273Y23862450D01*
X3896592Y24049699D01*
X3729699Y24216592D01*
X3708208Y24233082D01*
X3542452Y24360272D01*
X3474316Y24399610D01*
X3338049Y24478284D01*
X3338047Y24478285D01*
X3338045Y24478286D01*
X3338043Y24478287D01*
X3236059Y24520530D01*
X3119993Y24568606D01*
X3119986Y24568608D01*
X2892026Y24629690D01*
X2892014Y24629693D01*
X2658013Y24660500D01*
X2658011Y24660500D01*
X2421989Y24660500D01*
X2421987Y24660500D01*
X2187985Y24629693D01*
X2187973Y24629690D01*
X1960013Y24568608D01*
X1960009Y24568607D01*
X1960007Y24568606D01*
X1960005Y24568605D01*
X1741956Y24478287D01*
X1741954Y24478286D01*
X1537547Y24360272D01*
X1350304Y24216595D01*
X1183405Y24049696D01*
X1039728Y23862453D01*
X921714Y23658046D01*
X921713Y23658044D01*
X845475Y23473990D01*
X831394Y23439993D01*
X770307Y23212014D01*
X739500Y22978011D01*
X254500Y22978011D01*
X254500Y25057600D01*
X275065Y25114101D01*
X327136Y25144165D01*
X342400Y25145500D01*
X19905020Y25145500D01*
X19961521Y25124935D01*
G37*
%TD.AperFunction*%
%TA.AperFunction,Conductor*%
G36*
X8799413Y10507235D02*
G01*
X8805067Y10502055D01*
X9232055Y10075067D01*
X9257466Y10020573D01*
X9257800Y10012912D01*
X9257800Y8562149D01*
X9257800Y8455851D01*
X9298479Y8357643D01*
X11137055Y6519067D01*
X11162466Y6464574D01*
X11162800Y6456913D01*
X11162800Y2425769D01*
X11142235Y2369268D01*
X11106653Y2343805D01*
X10929488Y2275172D01*
X10929482Y2275169D01*
X10753314Y2166091D01*
X10753305Y2166085D01*
X10600173Y2026485D01*
X10475302Y1861129D01*
X10475300Y1861126D01*
X10475300Y1861125D01*
X10398855Y1707603D01*
X10382936Y1675634D01*
X10382934Y1675629D01*
X10326229Y1476335D01*
X10326229Y1476334D01*
X10307110Y1270001D01*
X10307110Y1270000D01*
X10326229Y1063667D01*
X10326229Y1063666D01*
X10366619Y921714D01*
X10382936Y864365D01*
X10475300Y678875D01*
X10600174Y513514D01*
X10679441Y441252D01*
X10716620Y407359D01*
X10744520Y354097D01*
X10731657Y295362D01*
X10684049Y258636D01*
X10657402Y254500D01*
X9662598Y254500D01*
X9606097Y275065D01*
X9576033Y327136D01*
X9586474Y386350D01*
X9603380Y407359D01*
X9627057Y428945D01*
X9719826Y513514D01*
X9844700Y678875D01*
X9937064Y864365D01*
X9993771Y1063670D01*
X10012890Y1270000D01*
X9993771Y1476330D01*
X9976352Y1537550D01*
X9963728Y1581920D01*
X9937064Y1675635D01*
X9844700Y1861125D01*
X9719826Y2026486D01*
X9617311Y2119941D01*
X9566694Y2166085D01*
X9566685Y2166091D01*
X9389327Y2275906D01*
X9352114Y2323134D01*
X9347700Y2350640D01*
X9347700Y3997258D01*
X9316508Y4113666D01*
X9290748Y4158284D01*
X9256251Y4218035D01*
X8484445Y4989841D01*
X8459034Y5044335D01*
X8458700Y5051996D01*
X8458700Y9935862D01*
X8470478Y9979814D01*
X8472511Y9983334D01*
X8475378Y9994035D01*
X8480328Y10007805D01*
X8486159Y10020573D01*
X8490261Y10029554D01*
X8495729Y10067592D01*
X8497827Y10077816D01*
X8503703Y10099743D01*
X8503703Y10116763D01*
X8504598Y10129273D01*
X8509016Y10159999D01*
X8509016Y10160002D01*
X8504598Y10190730D01*
X8503703Y10203239D01*
X8503703Y10220259D01*
X8501099Y10229973D01*
X8497827Y10242182D01*
X8495727Y10252422D01*
X8493126Y10270515D01*
X8490261Y10290446D01*
X8480323Y10312206D01*
X8475378Y10325965D01*
X8475199Y10326631D01*
X8472511Y10336666D01*
X8458533Y10360875D01*
X8454704Y10368303D01*
X8438681Y10403388D01*
X8433918Y10463324D01*
X8468796Y10512302D01*
X8518639Y10527800D01*
X8742912Y10527800D01*
X8799413Y10507235D01*
G37*
%TD.AperFunction*%
%TD*%
M02*
