%TF.GenerationSoftware,KiCad,Pcbnew,8.0.5*%
%TF.CreationDate,2024-09-30T11:30:18+01:00*%
%TF.ProjectId,Soft_Power_Switch_USB-C,536f6674-5f50-46f7-9765-725f53776974,v01*%
%TF.SameCoordinates,Original*%
%TF.FileFunction,Legend,Top*%
%TF.FilePolarity,Positive*%
%FSLAX46Y46*%
G04 Gerber Fmt 4.6, Leading zero omitted, Abs format (unit mm)*
G04 Created by KiCad (PCBNEW 8.0.5) date 2024-09-30 11:30:18*
%MOMM*%
%LPD*%
G01*
G04 APERTURE LIST*
%ADD10C,0.203200*%
%ADD11C,0.000000*%
%ADD12C,0.120000*%
%ADD13C,0.200000*%
%ADD14C,0.127000*%
G04 APERTURE END LIST*
D10*
%TO.C,SW1*%
X10160000Y21112000D02*
X10160000Y23622000D01*
X11160000Y24892000D02*
X14240000Y24892000D01*
X14240000Y19812000D02*
X11160000Y19812000D01*
X15240000Y23592000D02*
X15240000Y21112000D01*
X13970000Y22352000D02*
G75*
G02*
X11430000Y22352000I-1270000J0D01*
G01*
X11430000Y22352000D02*
G75*
G02*
X13970000Y22352000I1270000J0D01*
G01*
D11*
%TO.C,G\u002A\u002A\u002A*%
G36*
X16348587Y13962204D02*
G01*
X16372502Y13960569D01*
X16395808Y13957709D01*
X16418456Y13953753D01*
X16440395Y13948825D01*
X16461579Y13943054D01*
X16481957Y13936567D01*
X16501480Y13929489D01*
X16520099Y13921949D01*
X16537766Y13914073D01*
X16554431Y13905987D01*
X16584557Y13889696D01*
X16610087Y13874091D01*
X16630628Y13860187D01*
X16645785Y13848999D01*
X16658383Y13838830D01*
X16651646Y13840279D01*
X16633122Y13843259D01*
X16620232Y13844680D01*
X16605345Y13845715D01*
X16588778Y13846106D01*
X16570848Y13845596D01*
X16551871Y13843929D01*
X16532164Y13840849D01*
X16512043Y13836099D01*
X16501927Y13833017D01*
X16491825Y13829421D01*
X16481779Y13825280D01*
X16471827Y13820561D01*
X16462010Y13815232D01*
X16452365Y13809261D01*
X16442935Y13802615D01*
X16433757Y13795264D01*
X16424871Y13787174D01*
X16416317Y13778314D01*
X16405766Y13766030D01*
X16396435Y13753535D01*
X16388377Y13740811D01*
X16381646Y13727841D01*
X16378794Y13721258D01*
X16376294Y13714608D01*
X16374151Y13707887D01*
X16372374Y13701095D01*
X16370968Y13694229D01*
X16369941Y13687286D01*
X16369298Y13680265D01*
X16369046Y13673163D01*
X16369192Y13665979D01*
X16369744Y13658710D01*
X16370706Y13651354D01*
X16372086Y13643909D01*
X16373891Y13636373D01*
X16376128Y13628743D01*
X16378802Y13621019D01*
X16381920Y13613196D01*
X16385490Y13605275D01*
X16389518Y13597251D01*
X16394010Y13589124D01*
X16398973Y13580891D01*
X16404415Y13572549D01*
X16410340Y13564098D01*
X16423671Y13546856D01*
X16435980Y13532725D01*
X16449566Y13518720D01*
X16464271Y13504972D01*
X16479936Y13491611D01*
X16496403Y13478770D01*
X16513512Y13466579D01*
X16531107Y13455170D01*
X16549029Y13444674D01*
X16567118Y13435221D01*
X16585217Y13426944D01*
X16603168Y13419973D01*
X16620811Y13414440D01*
X16637989Y13410475D01*
X16646354Y13409122D01*
X16654543Y13408211D01*
X16662536Y13407757D01*
X16670315Y13407778D01*
X16677857Y13408289D01*
X16685145Y13409307D01*
X16695003Y13411552D01*
X16704050Y13414482D01*
X16712320Y13418045D01*
X16719845Y13422194D01*
X16726657Y13426877D01*
X16732790Y13432046D01*
X16738276Y13437651D01*
X16743148Y13443643D01*
X16747437Y13449972D01*
X16751177Y13456588D01*
X16754401Y13463443D01*
X16757141Y13470486D01*
X16759429Y13477668D01*
X16761298Y13484940D01*
X16762781Y13492252D01*
X16763911Y13499554D01*
X16765239Y13513933D01*
X16765544Y13527679D01*
X16765087Y13540397D01*
X16764128Y13551691D01*
X16762928Y13561165D01*
X16761748Y13568422D01*
X16760491Y13574703D01*
X16780568Y13566958D01*
X16800743Y13556689D01*
X16820904Y13543988D01*
X16840942Y13528948D01*
X16880208Y13492213D01*
X16917659Y13447217D01*
X16952414Y13394692D01*
X16983594Y13335372D01*
X17010316Y13269990D01*
X17031700Y13199277D01*
X17046866Y13123968D01*
X17051841Y13084818D01*
X17054932Y13044795D01*
X17056027Y13003988D01*
X17055017Y12962490D01*
X17051792Y12920392D01*
X17046242Y12877787D01*
X17038255Y12834765D01*
X17027724Y12791418D01*
X17014536Y12747838D01*
X16998583Y12704116D01*
X16979754Y12660345D01*
X16957939Y12616615D01*
X16933028Y12573018D01*
X16904910Y12529646D01*
X16873005Y12485808D01*
X16839252Y12444199D01*
X16803629Y12404935D01*
X16766115Y12368134D01*
X16726686Y12333915D01*
X16685321Y12302394D01*
X16641997Y12273689D01*
X16596692Y12247919D01*
X16549383Y12225199D01*
X16500050Y12205649D01*
X16448668Y12189386D01*
X16395217Y12176526D01*
X16339673Y12167189D01*
X16282015Y12161491D01*
X16222221Y12159550D01*
X16160267Y12161484D01*
X16143891Y12162464D01*
X16128058Y12162635D01*
X16112732Y12162011D01*
X16097878Y12160608D01*
X16083461Y12158439D01*
X16069445Y12155519D01*
X16055795Y12151865D01*
X16042475Y12147489D01*
X16029451Y12142407D01*
X16016688Y12136634D01*
X16004149Y12130185D01*
X15991799Y12123074D01*
X15967528Y12106926D01*
X15943592Y12088310D01*
X15919707Y12067342D01*
X15895593Y12044142D01*
X15870966Y12018828D01*
X15845544Y11991518D01*
X15730261Y11864687D01*
X15673677Y11803281D01*
X15620503Y11743993D01*
X15572014Y11688695D01*
X15529484Y11639257D01*
X15494186Y11597549D01*
X15467396Y11565442D01*
X15444435Y11537512D01*
X15444435Y12758453D01*
X15443973Y12782664D01*
X15444160Y12805969D01*
X15444977Y12828386D01*
X15446409Y12849932D01*
X15448439Y12870627D01*
X15451050Y12890488D01*
X15454225Y12909535D01*
X15457948Y12927785D01*
X15462202Y12945257D01*
X15466969Y12961969D01*
X15472234Y12977941D01*
X15477980Y12993189D01*
X15484189Y13007733D01*
X15490846Y13021591D01*
X15497933Y13034781D01*
X15505434Y13047322D01*
X15513332Y13059233D01*
X15521610Y13070531D01*
X15530251Y13081235D01*
X15539239Y13091363D01*
X15548558Y13100935D01*
X15558189Y13109968D01*
X15568118Y13118480D01*
X15578326Y13126490D01*
X15588797Y13134017D01*
X15599514Y13141079D01*
X15610462Y13147694D01*
X15621622Y13153881D01*
X15644514Y13165044D01*
X15668057Y13174715D01*
X15681271Y13179426D01*
X15694342Y13183565D01*
X15707251Y13187161D01*
X15719981Y13190239D01*
X15732514Y13192829D01*
X15744831Y13194957D01*
X15756914Y13196652D01*
X15768745Y13197941D01*
X15780307Y13198853D01*
X15791580Y13199413D01*
X15802547Y13199651D01*
X15813189Y13199594D01*
X15823490Y13199270D01*
X15833429Y13198707D01*
X15852154Y13196971D01*
X15869218Y13194610D01*
X15884478Y13191845D01*
X15897788Y13188897D01*
X15909003Y13185988D01*
X15917978Y13183340D01*
X15924568Y13181174D01*
X15930014Y13179175D01*
X15913190Y13172319D01*
X15895304Y13163994D01*
X15884910Y13158679D01*
X15873898Y13152624D01*
X15862530Y13145848D01*
X15851068Y13138371D01*
X15839774Y13130216D01*
X15828910Y13121401D01*
X15818739Y13111948D01*
X15813994Y13106988D01*
X15809521Y13101877D01*
X15805352Y13096616D01*
X15801520Y13091208D01*
X15798058Y13085656D01*
X15794998Y13079962D01*
X15792008Y13073087D01*
X15789570Y13065974D01*
X15787681Y13058650D01*
X15786342Y13051141D01*
X15785549Y13043472D01*
X15785303Y13035671D01*
X15785600Y13027764D01*
X15786440Y13019777D01*
X15787822Y13011736D01*
X15789743Y13003667D01*
X15792203Y12995598D01*
X15795199Y12987554D01*
X15798731Y12979561D01*
X15802796Y12971646D01*
X15807394Y12963836D01*
X15812523Y12956156D01*
X15818181Y12948633D01*
X15824367Y12941292D01*
X15831080Y12934162D01*
X15838317Y12927267D01*
X15846078Y12920634D01*
X15854361Y12914289D01*
X15863165Y12908260D01*
X15872487Y12902571D01*
X15882328Y12897249D01*
X15892684Y12892321D01*
X15903555Y12887813D01*
X15914939Y12883752D01*
X15926835Y12880163D01*
X15939241Y12877072D01*
X15952155Y12874507D01*
X15965577Y12872494D01*
X15985407Y12870607D01*
X16004916Y12870069D01*
X16024041Y12870833D01*
X16042722Y12872851D01*
X16060897Y12876078D01*
X16078505Y12880465D01*
X16095485Y12885967D01*
X16111773Y12892535D01*
X16127311Y12900123D01*
X16142035Y12908685D01*
X16155884Y12918172D01*
X16168797Y12928538D01*
X16180713Y12939737D01*
X16191569Y12951720D01*
X16201305Y12964442D01*
X16209859Y12977855D01*
X16217169Y12991912D01*
X16223174Y13006566D01*
X16227813Y13021771D01*
X16231023Y13037479D01*
X16232745Y13053643D01*
X16232915Y13070216D01*
X16231473Y13087152D01*
X16228357Y13104403D01*
X16223506Y13121923D01*
X16216858Y13139664D01*
X16208352Y13157580D01*
X16197926Y13175623D01*
X16185519Y13193746D01*
X16171069Y13211903D01*
X16154515Y13230047D01*
X16135795Y13248130D01*
X16093790Y13288342D01*
X16055782Y13329140D01*
X16038356Y13349715D01*
X16022026Y13370384D01*
X16006824Y13391129D01*
X15992780Y13411933D01*
X15979928Y13432778D01*
X15968299Y13453647D01*
X15957925Y13474522D01*
X15948839Y13495386D01*
X15941072Y13516222D01*
X15934656Y13537011D01*
X15929623Y13557736D01*
X15926006Y13578380D01*
X15923836Y13598924D01*
X15923146Y13619353D01*
X15923966Y13639647D01*
X15926331Y13659791D01*
X15930270Y13679765D01*
X15935817Y13699552D01*
X15943003Y13719136D01*
X15951860Y13738498D01*
X15962421Y13757620D01*
X15974718Y13776487D01*
X15988781Y13795079D01*
X16004644Y13813379D01*
X16022339Y13831370D01*
X16041896Y13849035D01*
X16063350Y13866355D01*
X16086730Y13883313D01*
X16114038Y13900898D01*
X16141227Y13915990D01*
X16168248Y13928716D01*
X16195053Y13939203D01*
X16221592Y13947577D01*
X16247817Y13953966D01*
X16273678Y13958496D01*
X16299126Y13961295D01*
X16324112Y13962488D01*
X16348587Y13962204D01*
G37*
D12*
%TO.C,D3*%
X24768000Y6104000D02*
X24768000Y7104000D01*
%TO.C,D2*%
X632000Y7104000D02*
X632000Y6104000D01*
D10*
%TO.C,C2*%
X11450000Y7480000D02*
X13950000Y7480000D01*
%TO.C,Q3*%
X12270600Y11938000D02*
X13129400Y11938000D01*
X13129400Y9398000D02*
X12270600Y9398000D01*
D13*
X11784000Y12268200D02*
G75*
G02*
X11584000Y12268200I-100000J0D01*
G01*
X11584000Y12268200D02*
G75*
G02*
X11784000Y12268200I100000J0D01*
G01*
D14*
%TO.C,U2*%
X7966000Y20277000D02*
X6766000Y20277000D01*
X7966000Y18077000D02*
X6766000Y18077000D01*
D13*
X6616000Y20427000D02*
G75*
G02*
X6416000Y20427000I-100000J0D01*
G01*
X6416000Y20427000D02*
G75*
G02*
X6616000Y20427000I100000J0D01*
G01*
D12*
%TO.C,R8*%
X19318500Y4301258D02*
X19318500Y3826742D01*
X18273500Y4301258D02*
X18273500Y3826742D01*
%TO.C,R4*%
X20082742Y7126500D02*
X20557258Y7126500D01*
X20082742Y6081500D02*
X20557258Y6081500D01*
%TO.C,R1*%
X19670500Y19003742D02*
X19670500Y19478258D01*
X20715500Y19003742D02*
X20715500Y19478258D01*
%TO.C,R11*%
X9666500Y11413258D02*
X9666500Y10938742D01*
X8621500Y11413258D02*
X8621500Y10938742D01*
D10*
%TO.C,Q1*%
X9844000Y5464000D02*
X9044000Y5464000D01*
X9844000Y4864000D02*
X9844000Y5464000D01*
X9844000Y3264000D02*
X9844000Y2664000D01*
X9844000Y2664000D02*
X9044000Y2664000D01*
D12*
%TO.C,R6*%
X7126500Y4301258D02*
X7126500Y3826742D01*
X6081500Y4301258D02*
X6081500Y3826742D01*
D10*
%TO.C,J2*%
X20996000Y8380000D02*
X22796000Y8380000D01*
X20996000Y17020000D02*
X22796000Y17020000D01*
D12*
%TO.C,R3*%
X5317258Y6081500D02*
X4842742Y6081500D01*
X5317258Y7126500D02*
X4842742Y7126500D01*
%TO.C,C4*%
X17524000Y22719420D02*
X17524000Y23000580D01*
X18544000Y22719420D02*
X18544000Y23000580D01*
%TO.C,R5*%
X8906742Y6999500D02*
X9381258Y6999500D01*
X8906742Y5954500D02*
X9381258Y5954500D01*
%TO.C,C3*%
X6856000Y22719420D02*
X6856000Y23000580D01*
X7876000Y22719420D02*
X7876000Y23000580D01*
D10*
%TO.C,U4*%
X13208000Y19177000D02*
X12192000Y19177000D01*
X13208000Y17145000D02*
X12192000Y17145000D01*
D13*
X11784000Y19494500D02*
G75*
G02*
X11584000Y19494500I-100000J0D01*
G01*
X11584000Y19494500D02*
G75*
G02*
X11784000Y19494500I100000J0D01*
G01*
D10*
%TO.C,D1*%
X770000Y19421000D02*
X770000Y18171000D01*
X1640000Y19421000D02*
X3440000Y19421000D01*
X1640000Y18171000D02*
X3440000Y18171000D01*
D12*
%TO.C,R7*%
X16018742Y6999500D02*
X16493258Y6999500D01*
X16018742Y5954500D02*
X16493258Y5954500D01*
D14*
%TO.C,U3*%
X17434000Y18077000D02*
X18634000Y18077000D01*
X17434000Y20277000D02*
X18634000Y20277000D01*
D13*
X18984000Y17927000D02*
G75*
G02*
X18784000Y17927000I-100000J0D01*
G01*
X18784000Y17927000D02*
G75*
G02*
X18984000Y17927000I100000J0D01*
G01*
D12*
%TO.C,R2*%
X22622742Y19318500D02*
X23097258Y19318500D01*
X22622742Y18273500D02*
X23097258Y18273500D01*
D10*
%TO.C,J1*%
X4404000Y17020000D02*
X2604000Y17020000D01*
X4404000Y8380000D02*
X2604000Y8380000D01*
D12*
%TO.C,R12*%
X8621500Y13986742D02*
X8621500Y14461258D01*
X9666500Y13986742D02*
X9666500Y14461258D01*
%TO.C,R9*%
X14113742Y8777500D02*
X14588258Y8777500D01*
X14113742Y7732500D02*
X14588258Y7732500D01*
%TO.C,C1*%
X4697000Y19163420D02*
X4697000Y19444580D01*
X5717000Y19163420D02*
X5717000Y19444580D01*
%TO.C,R10*%
X11286258Y7732500D02*
X10811742Y7732500D01*
X11286258Y8777500D02*
X10811742Y8777500D01*
D10*
%TO.C,Q2*%
X15556000Y2664000D02*
X16356000Y2664000D01*
X15556000Y3264000D02*
X15556000Y2664000D01*
X15556000Y4864000D02*
X15556000Y5464000D01*
X15556000Y5464000D02*
X16356000Y5464000D01*
D11*
%TO.C,kibuzzard-65F1758C*%
G36*
X7258348Y17443351D02*
G01*
X7290792Y17410311D01*
X7296745Y17348398D01*
X7296745Y16686411D01*
X7294959Y16644739D01*
X7283648Y16613783D01*
X7252097Y16589673D01*
X7190780Y16581636D01*
X7124700Y16592947D01*
X7093148Y16626880D01*
X7086005Y16687602D01*
X7086005Y17349589D01*
X7087791Y17390666D01*
X7099102Y17422217D01*
X7130653Y17446327D01*
X7191970Y17454364D01*
X7258348Y17443351D01*
G37*
G36*
X8101013Y17447220D02*
G01*
X8131969Y17432933D01*
X8146852Y17407930D01*
X8153995Y17347208D01*
X8153995Y16686411D01*
X8152209Y16644739D01*
X8140898Y16613783D01*
X8109347Y16589673D01*
X8048030Y16581636D01*
X7983736Y16588780D01*
X7953970Y16611402D01*
X7869767Y16723585D01*
X7795749Y16822010D01*
X7731919Y16906677D01*
X7678274Y16977585D01*
X7634817Y17034735D01*
X7601545Y17078127D01*
X7601545Y16686411D01*
X7599759Y16644739D01*
X7588448Y16613783D01*
X7556897Y16589673D01*
X7495580Y16581636D01*
X7436048Y16589673D01*
X7405092Y16613783D01*
X7393781Y16645930D01*
X7391995Y16687602D01*
X7391995Y17351970D01*
X7403306Y17418050D01*
X7437239Y17446030D01*
X7495580Y17453173D01*
X7552134Y17446625D01*
X7581305Y17431742D01*
X7608689Y17400786D01*
X7687799Y17293332D01*
X7757649Y17198777D01*
X7818239Y17117120D01*
X7869568Y17048361D01*
X7911637Y16992501D01*
X7944445Y16949539D01*
X7944445Y17351970D01*
X7955756Y17418050D01*
X7989689Y17446030D01*
X8046244Y17453173D01*
X8101013Y17447220D01*
G37*
%TO.C,kibuzzard-65F0636B*%
G36*
X24940518Y5721370D02*
G01*
X24961949Y5696188D01*
X24967307Y5651183D01*
X24961949Y5606713D01*
X24943733Y5583674D01*
X24889083Y5574030D01*
X24684415Y5574030D01*
X24684415Y5035034D01*
X24682807Y4998601D01*
X24673163Y4971276D01*
X24644767Y4949309D01*
X24591189Y4942880D01*
X24538146Y4949309D01*
X24510286Y4971276D01*
X24500642Y4999137D01*
X24499034Y5036106D01*
X24499034Y5574030D01*
X24293294Y5574030D01*
X24242931Y5582067D01*
X24221500Y5607248D01*
X24216142Y5652254D01*
X24221500Y5696724D01*
X24239716Y5719763D01*
X24294366Y5729407D01*
X24890155Y5729407D01*
X24940518Y5721370D01*
G37*
G36*
X22512357Y5716548D02*
G01*
X22559774Y5683865D01*
X22575580Y5647968D01*
X22559506Y5596533D01*
X22263755Y4996458D01*
X22227857Y4958417D01*
X22178030Y4943951D01*
X22167314Y4943951D01*
X22116415Y4958417D01*
X22080518Y4996458D01*
X21784766Y5596533D01*
X21768693Y5647968D01*
X21784499Y5683865D01*
X21831915Y5716548D01*
X21886029Y5734764D01*
X21914425Y5730478D01*
X21932642Y5715476D01*
X21950323Y5687080D01*
X21964655Y5657076D01*
X21991578Y5598140D01*
X22026002Y5522461D01*
X22062837Y5442228D01*
X22099806Y5361995D01*
X22134632Y5286315D01*
X22161019Y5229121D01*
X22172672Y5204341D01*
X22386985Y5673685D01*
X22401986Y5705832D01*
X22449135Y5734764D01*
X22512357Y5716548D01*
G37*
G36*
X24108985Y5724049D02*
G01*
X24136846Y5711190D01*
X24150776Y5688687D01*
X24157206Y5632966D01*
X24157206Y5309354D01*
X24151714Y5240238D01*
X24135239Y5174337D01*
X24107780Y5111651D01*
X24069338Y5052179D01*
X24020314Y5002753D01*
X23958967Y4963775D01*
X23887842Y4938459D01*
X23809484Y4930021D01*
X23731260Y4938593D01*
X23660537Y4964311D01*
X23599859Y5003959D01*
X23551773Y5054322D01*
X23513799Y5112990D01*
X23486676Y5175409D01*
X23470401Y5241578D01*
X23464976Y5311497D01*
X23464976Y5634038D01*
X23466584Y5672078D01*
X23476764Y5700474D01*
X23505696Y5722977D01*
X23560345Y5729407D01*
X23614995Y5722977D01*
X23642856Y5700474D01*
X23655715Y5632966D01*
X23655715Y5311497D01*
X23663751Y5247739D01*
X23687861Y5187196D01*
X23736082Y5138976D01*
X23812163Y5120759D01*
X23880475Y5135225D01*
X23928963Y5178623D01*
X23957895Y5241042D01*
X23967539Y5312569D01*
X23967539Y5640467D01*
X23978255Y5699403D01*
X24009330Y5722977D01*
X24060229Y5729407D01*
X24108985Y5724049D01*
G37*
G36*
X23079817Y5730813D02*
G01*
X23151276Y5709315D01*
X23217512Y5673484D01*
X23278525Y5623322D01*
X23329625Y5562544D01*
X23366125Y5494868D01*
X23388025Y5420294D01*
X23395325Y5338822D01*
X23388360Y5257048D01*
X23367464Y5181570D01*
X23332638Y5112387D01*
X23283882Y5049500D01*
X23224946Y4997228D01*
X23159581Y4959891D01*
X23087786Y4937488D01*
X23009562Y4930021D01*
X23007419Y4930222D01*
X22931171Y4937388D01*
X22858874Y4959489D01*
X22792671Y4996324D01*
X22732563Y5047893D01*
X22682635Y5109642D01*
X22646972Y5177016D01*
X22625575Y5250016D01*
X22618442Y5328642D01*
X22618942Y5334000D01*
X22808109Y5334000D01*
X22814955Y5274409D01*
X22835493Y5222796D01*
X22869723Y5179159D01*
X22934955Y5134555D01*
X23007419Y5119687D01*
X23079750Y5134154D01*
X23144579Y5177552D01*
X23178512Y5220533D01*
X23198872Y5272326D01*
X23205658Y5332928D01*
X23198812Y5393650D01*
X23178274Y5445800D01*
X23144043Y5489377D01*
X23078812Y5533579D01*
X23006348Y5548313D01*
X22934017Y5533445D01*
X22869188Y5488841D01*
X22835255Y5445204D01*
X22814895Y5393591D01*
X22808109Y5334000D01*
X22618942Y5334000D01*
X22626479Y5414769D01*
X22650589Y5495270D01*
X22688094Y5566663D01*
X22736314Y5625465D01*
X22793910Y5672346D01*
X22859544Y5707975D01*
X22930267Y5730478D01*
X23003133Y5737979D01*
X23079817Y5730813D01*
G37*
%TO.C,kibuzzard-65F0634B*%
G36*
X2139424Y5713601D02*
G01*
X2168624Y5683865D01*
X2173982Y5628144D01*
X2173982Y5032355D01*
X2172375Y4994850D01*
X2162195Y4966990D01*
X2133798Y4945291D01*
X2078613Y4938058D01*
X2019141Y4948237D01*
X1990745Y4978777D01*
X1984315Y5033427D01*
X1984315Y5629215D01*
X1985923Y5666184D01*
X1996103Y5694581D01*
X2024499Y5716280D01*
X2079685Y5723513D01*
X2139424Y5713601D01*
G37*
G36*
X1862157Y5711726D02*
G01*
X1909574Y5679043D01*
X1925380Y5643146D01*
X1909306Y5591711D01*
X1613555Y4991636D01*
X1577657Y4953595D01*
X1527830Y4939129D01*
X1517114Y4939129D01*
X1466215Y4953595D01*
X1430318Y4991636D01*
X1134566Y5591711D01*
X1118493Y5643146D01*
X1134299Y5679043D01*
X1181715Y5711726D01*
X1235829Y5729942D01*
X1264225Y5725656D01*
X1282442Y5710654D01*
X1300123Y5682258D01*
X1314455Y5652254D01*
X1341378Y5593318D01*
X1375802Y5517639D01*
X1412637Y5437406D01*
X1449606Y5357173D01*
X1484432Y5281493D01*
X1510819Y5224299D01*
X1522472Y5199519D01*
X1736785Y5668863D01*
X1751786Y5701010D01*
X1798935Y5729942D01*
X1862157Y5711726D01*
G37*
G36*
X2897823Y5717084D02*
G01*
X2925683Y5704225D01*
X2939078Y5681722D01*
X2945507Y5627072D01*
X2945507Y5032355D01*
X2943900Y4994850D01*
X2933720Y4966990D01*
X2905323Y4945291D01*
X2850138Y4938058D01*
X2792274Y4944487D01*
X2765485Y4964847D01*
X2689701Y5065812D01*
X2623086Y5154394D01*
X2565638Y5230594D01*
X2517358Y5294412D01*
X2478246Y5345847D01*
X2448302Y5384899D01*
X2448302Y5032355D01*
X2446695Y4994850D01*
X2436515Y4966990D01*
X2408118Y4945291D01*
X2352933Y4938058D01*
X2299355Y4945291D01*
X2271494Y4966990D01*
X2261314Y4995922D01*
X2259707Y5033427D01*
X2259707Y5631359D01*
X2269887Y5690830D01*
X2300426Y5716012D01*
X2352933Y5722441D01*
X2403832Y5716548D01*
X2430085Y5703153D01*
X2454731Y5675293D01*
X2525931Y5578584D01*
X2588796Y5493484D01*
X2643326Y5419993D01*
X2689523Y5358110D01*
X2727385Y5307836D01*
X2756912Y5269170D01*
X2756912Y5631359D01*
X2767092Y5690830D01*
X2797631Y5716012D01*
X2848531Y5722441D01*
X2897823Y5717084D01*
G37*
%TO.C,kibuzzard-65F174FD*%
G36*
X18420159Y17448411D02*
G01*
X18443972Y17420431D01*
X18449925Y17370425D01*
X18443972Y17321014D01*
X18423731Y17295416D01*
X18363009Y17284700D01*
X18135600Y17284700D01*
X18135600Y16685816D01*
X18133814Y16645334D01*
X18123098Y16614973D01*
X18091547Y16590566D01*
X18032016Y16583422D01*
X17973080Y16590566D01*
X17942123Y16614973D01*
X17931408Y16645930D01*
X17929622Y16687006D01*
X17929622Y17284700D01*
X17701022Y17284700D01*
X17645063Y17293630D01*
X17621250Y17321609D01*
X17615297Y17371616D01*
X17621250Y17421027D01*
X17641491Y17446625D01*
X17702213Y17457341D01*
X18364200Y17457341D01*
X18420159Y17448411D01*
G37*
G36*
X17496234Y17451387D02*
G01*
X17527191Y17437100D01*
X17542669Y17412097D01*
X17549812Y17350184D01*
X17549812Y16990616D01*
X17543711Y16913820D01*
X17525405Y16840597D01*
X17494895Y16770945D01*
X17452181Y16704866D01*
X17397710Y16649948D01*
X17329547Y16606639D01*
X17250519Y16578511D01*
X17163455Y16569134D01*
X17076539Y16578659D01*
X16997958Y16607234D01*
X16930539Y16651288D01*
X16877109Y16707247D01*
X16834917Y16772434D01*
X16804779Y16841787D01*
X16786696Y16915309D01*
X16780669Y16992997D01*
X16780669Y17351375D01*
X16782455Y17393642D01*
X16793766Y17425194D01*
X16825913Y17450197D01*
X16886634Y17457341D01*
X16947356Y17450197D01*
X16978313Y17425194D01*
X16992600Y17350184D01*
X16992600Y16992997D01*
X17001530Y16922155D01*
X17028319Y16854884D01*
X17081897Y16801306D01*
X17166431Y16781066D01*
X17242334Y16797139D01*
X17296209Y16845359D01*
X17328356Y16914713D01*
X17339072Y16994187D01*
X17339072Y17358519D01*
X17350978Y17424003D01*
X17385506Y17450197D01*
X17442061Y17457341D01*
X17496234Y17451387D01*
G37*
G36*
X16352713Y17458903D02*
G01*
X16432113Y17435016D01*
X16505709Y17395205D01*
X16573500Y17339469D01*
X16630278Y17271938D01*
X16670834Y17196743D01*
X16695167Y17113883D01*
X16703278Y17023358D01*
X16695539Y16932498D01*
X16672322Y16848634D01*
X16633627Y16771764D01*
X16579453Y16701889D01*
X16513969Y16643809D01*
X16441341Y16602323D01*
X16361569Y16577432D01*
X16274653Y16569134D01*
X16272272Y16569358D01*
X16187551Y16577320D01*
X16107221Y16601877D01*
X16033663Y16642804D01*
X15966877Y16700103D01*
X15911401Y16768713D01*
X15871775Y16843573D01*
X15848000Y16924685D01*
X15840075Y17012047D01*
X15840631Y17018000D01*
X16050816Y17018000D01*
X16058422Y16951788D01*
X16081243Y16894440D01*
X16119277Y16845955D01*
X16191756Y16796395D01*
X16272272Y16779875D01*
X16352639Y16795948D01*
X16424672Y16844169D01*
X16462375Y16891926D01*
X16484997Y16949473D01*
X16492537Y17016809D01*
X16484931Y17084278D01*
X16462110Y17142222D01*
X16424077Y17190641D01*
X16351597Y17239754D01*
X16271081Y17256125D01*
X16190714Y17239605D01*
X16118681Y17190045D01*
X16080978Y17141560D01*
X16058356Y17084212D01*
X16050816Y17018000D01*
X15840631Y17018000D01*
X15849005Y17107743D01*
X15875794Y17197189D01*
X15917466Y17276514D01*
X15971044Y17341850D01*
X16035040Y17393940D01*
X16107966Y17433528D01*
X16186547Y17458531D01*
X16267509Y17466866D01*
X16352713Y17458903D01*
G37*
%TD*%
M02*
